<?xml version="1.0" encoding="utf-8"?>
<!-- Generator: Adobe Illustrator 17.0.0, SVG Export Plug-In . SVG Version: 6.00 Build 0)  -->
<!DOCTYPE svg PUBLIC "-//W3C//DTD SVG 1.1//EN" "http://www.w3.org/Graphics/SVG/1.1/DTD/svg11.dtd">
<svg version="1.1" id="Layer_1" xmlns="http://www.w3.org/2000/svg" xmlns:xlink="http://www.w3.org/1999/xlink" x="0px" y="0px"
	 width="583.077px" height="363.233px" viewBox="0 0 583.077 363.233" enable-background="new 0 0 583.077 363.233"
	 xml:space="preserve">
<g>
	<path fill="#B4D361" d="M0,0.305c2.157-0.102,4.315-0.293,6.472-0.293C193.766-0.001,381.06,0,568.354,0c2.124,0,4.247,0,6.206,0
		c2.89,10.335,0.098,17.975-8.231,23.939c-4.307,3.084-8.333,6.688-11.98,10.537c-5.68,5.992-4.41,11.77,2.619,15.823
		c2.158,1.245,4.383,3.281,5.353,5.492c2.048,4.669,5.36,6.724,10.169,7.649c8.462,1.627,10.584,4.45,10.584,12.916
		c0.004,59.821,0.002,119.641,0.002,179.462c0,1.636,0,3.273,0,5.481c-4.111,0-7.854,0-13.198,0
		c6.923,9.633,3.243,19.291,3.949,28.96c9.427,5.558,6.61,15.271,6.765,23.964c0.061,3.419-0.576,6.923-1.398,10.265
		c-0.768,3.123-1.738,6.377-3.442,9.05c-3.324,5.213-5.656,9.705-0.81,15.688c3.01,3.716,4.225,8.885,6.279,13.477
		c-6.705,1.529-10.486-0.205-13.28-5.718c-2.75-5.426-7.091-9.059-11.809-12.976c-9.334-7.749-21.104-9.802-31.07-15.742
		c-0.427-0.255-0.873-0.62-1.333-0.658c-9.125-0.752-18.244-1.635-27.385-2.104c-4.109-0.211-8.284,0.812-12.386,0.567
		c-4.099-0.245-6.88,1.011-9.367,4.267c-5.374,7.038-9.627,7.02-16.131,1.147c-2.299-2.076-5.63-3.014-8.496-4.457
		c-1.882-0.948-4.308-1.413-5.578-2.882c-6.64-7.682-14.923-10.91-24.975-10.905c-139.803,0.073-279.607,0.058-419.41,0.064
		C0,208.972,0,104.639,0,0.305z M1.305,1.509c0,2.333,0,4.45,0,6.567c0,98.981,0,197.962,0.001,296.943
		c0,6.977,0.003,6.981,7.002,6.981c136.64,0.001,273.28,0.046,409.92-0.123c7.465-0.009,14.277,1.206,20.323,5.32
		c5.725,3.896,10.425,9.347,17.895,10.376c1.338,0.184,2.445,2.136,3.636,3.294c5.064,4.928,8.844,4.746,13.083-1.087
		c3.086-4.246,6.761-5.974,12.022-4.979c2.535,0.48,5.35,0.33,7.888-0.223c6.488-1.414,12.742-1.749,19.036,1.043
		c1.821,0.808,4.22,0.278,6.348,0.437c2.229,0.167,4.838-0.255,6.613,0.754c10.381,5.899,22.46,8.072,32.041,16.095
		c4.833,4.048,9.482,7.675,11.954,13.449c1.943,4.54,5.449,5.499,10.754,5.624c-2.939-5.516-5.643-10.24-7.968-15.144
		c-0.845-1.782-1.47-4.185-0.976-5.967c0.821-2.961,2.817-5.573,3.966-8.472c1.242-3.134,2.766-6.389,2.953-9.661
		c0.399-6.945,2.763-13.552,0.996-21.032c-0.934-3.953-1.534-6.813-4.604-9.324c-1.057-0.864-2.083-2.54-2.055-3.822
		c0.117-5.354,0.755-10.695,0.934-16.051c0.045-1.355-0.951-2.727-1.375-4.121c-0.761-2.504-1.45-5.029-2.379-8.277
		c4.864,0,8.465,0,12.609,0c0-2.41,0-4.361,0-6.313c0-58.322,0-116.644,0-174.966c0-10.4-1.181-12.052-11.132-14.37
		c-4.359-1.015-7.447-3.119-9.409-7.297c-0.99-2.107-2.75-4.259-4.731-5.423c-8.058-4.735-9.501-12.012-2.926-18.713
		c4.18-4.26,8.812-8.136,13.562-11.765c6.896-5.27,7.937-12.013,6.205-19.753C382.773,1.509,192.351,1.509,1.305,1.509z"/>
	<path fill="#B4D361" d="M1.305,1.509c191.045,0,381.468,0,572.187,0c1.731,7.74,0.691,14.483-6.205,19.753
		c-4.75,3.629-9.382,7.505-13.562,11.765c-6.575,6.701-5.132,13.979,2.926,18.713c1.981,1.164,3.742,3.316,4.731,5.423
		c1.962,4.179,5.05,6.282,9.409,7.297c9.951,2.318,11.132,3.97,11.132,14.37c0,58.322,0,116.644,0,174.966c0,1.952,0,3.903,0,6.313
		c-4.145,0-7.745,0-12.609,0c0.929,3.249,1.618,5.774,2.379,8.277c0.423,1.393,1.42,2.765,1.375,4.121
		c-0.179,5.355-0.817,10.696-0.934,16.051c-0.028,1.282,0.998,2.958,2.055,3.822c3.07,2.51,3.67,5.371,4.604,9.324
		c1.767,7.48-0.597,14.087-0.996,21.032c-0.188,3.272-1.711,6.527-2.953,9.661c-1.149,2.899-3.145,5.511-3.966,8.472
		c-0.494,1.782,0.132,4.185,0.976,5.967c2.325,4.904,5.029,9.628,7.968,15.144c-5.305-0.125-8.81-1.084-10.754-5.624
		c-2.472-5.774-7.121-9.401-11.954-13.449c-9.581-8.024-21.66-10.196-32.041-16.095c-1.776-1.009-4.384-0.587-6.613-0.754
		c-2.128-0.159-4.527,0.37-6.348-0.437c-6.294-2.792-12.548-2.457-19.036-1.043c-2.538,0.553-5.353,0.702-7.888,0.223
		c-5.261-0.996-8.936,0.732-12.022,4.979c-4.239,5.833-8.019,6.015-13.083,1.087c-1.191-1.159-2.297-3.11-3.636-3.294
		c-7.47-1.028-12.17-6.48-17.895-10.376c-6.046-4.114-12.858-5.329-20.323-5.32c-136.64,0.169-273.28,0.124-409.92,0.123
		c-6.999,0-7.002-0.003-7.002-6.981C1.305,206.038,1.305,107.057,1.305,8.076C1.305,5.959,1.305,3.842,1.305,1.509z"/>
</g>
</svg>
