<?xml version="1.0" encoding="UTF-8"?><!DOCTYPE svg PUBLIC "-//W3C//DTD SVG 1.1//EN" "http://www.w3.org/Graphics/SVG/1.1/DTD/svg11.dtd"><svg xmlns="http://www.w3.org/2000/svg"><symbol id="facebook" viewBox="0 0 126.84112 126.973"><path d="M67.588 126.973H6.924c-.155-.082-.305-.222-.467-.237C2.273 126.343-.02 123.1 0 118.368c.07-17.617.033-35.234.03-52.85 0-19.145-.008-38.29-.01-57.433 0-3.786 1.667-6.42 4.727-7.46C5.46.385 6.197.208 6.924 0h113.57c2.117.88 4.343 1.63 5.358 3.977.383.885.663 1.815.99 2.724v113.57c-.93 1.65-1.65 3.47-2.858 4.87-.8.93-2.303 1.25-3.49 1.84H87.69c.026-.702.074-1.406.074-2.11.006-14.926.034-29.853-.03-44.78-.008-1.716.493-2.184 2.173-2.14 4.168.114 8.343.01 12.515.045 1.262.01 1.875-.343 2.014-1.76.32-3.256.876-6.49 1.295-9.74.34-2.59.61-5.19.93-7.97-.93-.04-1.61-.095-2.3-.1-4.93-.003-9.87-.05-14.81.03-1.39.025-1.84-.382-1.81-1.78.09-3.7.03-7.405.06-11.107.04-5.496 2.61-8.045 8.13-8.065 3.29-.01 6.583-.046 9.872.03 1.403.03 1.82-.485 1.8-1.856-.07-4.76-.09-9.52.01-14.28.03-1.612-.696-2.034-2.075-2.067-4.99-.124-9.986-.535-14.96-.346-7.77.297-14.4 3.144-18.87 9.88-2.98 4.493-4.06 9.57-4.2 14.854-.12 4.347-.072 8.698-.007 13.046.02 1.32-.408 1.718-1.72 1.696-4.348-.074-8.7.014-13.046-.054-1.35-.02-1.88.367-1.862 1.788.066 5.288.07 10.578.008 15.866-.016 1.47.533 1.96 1.95 1.942 4.233-.05 8.465.04 12.695-.043 1.5-.03 2 .36 1.99 1.96-.065 14.982-.04 29.97-.033 44.953 0 .705.07 1.406.108 2.108z" fill="#fff"/></symbol><symbol id="instagram" viewBox="0 0 274.35403 275.55829"><g fill="#fff"><path d="M.213 98.548h79.485c-12.325 18.593-15.923 38.37-10.116 59.495 4.34 15.782 13.483 28.436 26.75 38.035 25.92 18.756 62.364 16.904 86.563-4.098 23.545-20.435 34.374-59.066 11.523-93.42h79.654c.06 1.103.183 2.274.183 3.445.01 40.01.06 80.02-.01 120.032-.05 29.364-24.356 53.508-53.727 53.513-55.614.01-111.227.012-166.84 0C24.642 275.54.23 251.61.098 222.59c-.188-40.454-.05-80.91-.043-121.367.002-.773.09-1.544.157-2.674zm274.05-8.606h-3.443c-26.97 0-53.94.034-80.91-.082-1.66-.007-3.708-.78-4.917-1.903-27.334-25.424-69.23-25.314-96.31.304-.873.83-2.234 1.61-3.37 1.618-27.972.082-55.946.057-83.92.042-.318 0-.636-.13-1.04-.217-.092-.426-.268-.852-.265-1.277.096-13.59-.18-27.197.43-40.764.62-13.877 10.48-29.82 22.482-37.58v57.945h10.923V9.36c0-6.122 1.178-7.267 7.998-7.512v66.067h11.1V.258h7.55v67.664h11.19V.002h4.56c48.037 0 96.07-.006 144.1.002 29.03.005 53.138 23.38 53.8 52.407.28 12.35.048 24.71.048 37.537zm-71.32-43.757c0 5.015-.048 10.03.012 15.045.06 5.078 3.536 8.624 8.594 8.658 9.69.065 19.39.07 29.08 0 5.057-.037 8.59-3.603 8.622-8.678.062-9.918.066-19.837-.005-29.755-.035-4.844-3.173-8.486-7.965-8.593-10.135-.227-20.283-.23-30.417.014-4.83.117-7.867 3.754-7.92 8.6-.05 4.9-.01 9.805-.01 14.71z"/><path d="M136.95 193.03c-29.948.003-54.23-24.203-54.204-54.033.027-29.76 24.426-54.07 54.256-54.06 29.914.012 54.104 24.224 54.068 54.12-.036 30.02-24.05 53.97-54.12 53.973zm.08-93.804c-22.22.05-39.723 17.85-39.68 40.357.04 21.448 18.11 39.32 39.77 39.34 22.22.017 39.907-18.003 39.847-40.596-.058-21.484-18.102-39.15-39.936-39.1z"/></g></symbol><symbol id="linkedin" viewBox="0 0 254.748 253.851"><path d="M18.812 0C8.434 0 0 8.192 0 18.28v217.25c0 10.11 8.434 18.314 18.812 18.314h217.063c10.39 0 18.875-8.203 18.875-18.313V18.28C254.75 8.193 246.264 0 235.875 0H18.812zm37.844 34.938c12.08 0 21.906 9.8 21.906 21.843 0 12.057-9.826 21.846-21.906 21.846-12.112 0-21.906-9.79-21.906-21.844 0-12.04 9.794-21.842 21.906-21.842zM171.78 92.156c38.235 0 45.282 25.09 45.282 57.72v66.437h-37.75v-58.907c0-14.057-.26-32.125-19.625-32.125-19.66 0-22.656 15.295-22.656 31.096v59.938H99.25V95.188h36.25v16.53h.5c5.045-9.52 17.4-19.562 35.78-19.562zM37.75 95.188h37.812v121.125H37.75V95.188z" fill="#fff"/></symbol><symbol id="tumblr" viewBox="0 0 285.63885 285.50125"><path d="M.13 142.673C.127 109.028.086 75.383.174 41.738c.012-4.625.157-9.356 1.11-13.854C4.832 11.136 17.074 1.014 34.31.134c2.265-.118 4.54-.127 6.81-.127C108.95 0 176.782-.025 244.613.063c4.828.006 9.777.332 14.46 1.414 14.602 3.375 23.803 13.756 25.824 28.605.45 3.31.698 6.674.7 10.014.04 68.48.09 136.96-.08 205.44-.013 5.75-.823 11.728-2.536 17.202-4.26 13.634-16.47 21.923-32.02 22.653-1.94.09-3.89.11-5.84.11-68.15.006-136.31.024-204.46-.042-4.19-.003-8.46-.28-12.56-1.105-17.84-3.59-26.833-16.266-27.75-33.603-.628-11.87-.2-23.795-.208-35.694-.02-24.136-.01-48.26-.01-72.386zm212.61 62.442c-1.732.674-2.92 1.12-4.096 1.596-9.147 3.72-18.502 6.59-28.353 7.84-16.49 2.08-28.16-5.34-31.17-20.212-.55-2.73-.68-5.585-.69-8.383-.05-21.416-.03-42.832-.02-64.25 0-1.27.14-2.54.23-4.126h3.74c16.878 0 33.75.002 50.62 0 4.18 0 4.19-.01 4.19-4.32 0-8.978-.002-17.956-.03-26.93-.014-4.805-.04-4.805-4.692-4.806-16.656-.005-33.313-.096-49.97.06-3.27.03-4.202-.852-4.172-4.163.153-17.087-.002-34.177.077-51.266.013-2.62-.655-3.59-3.433-3.525-7.784.18-15.574.06-23.36.08-.93.003-1.86.156-2.928.252-.1 1.18-.21 2.134-.25 3.087-.575 13.864-5.404 26.12-14.005 36.936-8.176 10.27-18.513 17.74-30.238 23.47-1.094.53-2.385 2.06-2.41 3.15-.2 8.432-.06 16.87-.15 25.307-.028 2.27 1.02 2.655 2.97 2.64 7.46-.06 14.924.003 22.39.02h3.902v8.155c-.006 28.016-.14 56.03.05 84.04.08 11.9 4.814 21.856 14.47 29.125 9.72 7.317 21.14 9.72 32.9 10.426 20.916 1.254 41.377-1.923 61.57-7.195 2.465-.644 3.208-1.854 3.17-4.315-.13-9.732-.07-19.467-.1-29.202 0-.95-.11-1.9-.21-3.484z" fill="#fff"/></symbol><symbol id="twitter" viewBox="0 0 284.97781 284.97781"><path d="M23.866 284.793c-1.162-.138-5.007-1.177-6.46-1.746-5.95-2.325-11.562-7.427-14.398-13.086-.802-1.6-1.903-4.79-2.444-7.08-.434-1.84-.446-5.086-.446-120.512V23.738l.623-2.375c1.42-5.397 3.53-9.283 7.05-12.95C11.38 4.666 15.71 2.216 21.38.73l2.37-.624h237.48l2.082.54c6.162 1.596 10.093 3.813 14.01 7.902 3.454 3.603 5.345 7.01 6.876 12.39l.662 2.325V142.36c0 114.08-.018 119.163-.427 120.748-1.527 5.913-3.818 10.136-7.498 13.815-3.64 3.64-7.555 5.783-13.697 7.496-1.473.41-6.37.42-120.04.45-65.178.01-118.877-.03-119.332-.08zm184.748-34.074c5.327-1.86 10.316-6.41 13.096-11.95 2.352-4.69 3.484-10.25 3.484-17.1 0-8.99-2.283-15.61-7.154-20.75-3.007-3.17-6.722-5.317-11.692-6.75l-1.83-.53-30.13-.14c-32.014-.148-31.493-.13-36.56-1.29-8.942-2.045-15.353-6.69-18.482-13.388-1.86-3.98-1.787-3.15-1.787-20.64V142.59l45.25-.117 45.25-.118 1.51-.547c3.67-1.327 6.52-3.196 9.05-5.934 4.71-5.106 7.14-13.21 6.72-22.38-.6-12.897-6.28-21.228-16.93-24.816-1.24-.42-3.285-.442-46.08-.555l-44.78-.118-.12-18.314c-.115-17.93-.127-18.34-.618-19.61-1.298-3.385-2.99-6.004-5.508-8.52-3.845-3.845-8.857-6.293-15.26-7.45-3.2-.58-11.096-.598-14.178-.03-6.04 1.11-10.51 3.073-14.51 6.376-2.98 2.46-5.878 6.63-7.12 10.24-.44 1.28-.45 2.82-.47 57.24-.01 37.61.066 57.205.237 59.827.784 11.988 2.897 29.62 4.14 34.554 3.12 12.368 11.285 25.05 22.987 35.7 5.566 5.067 8.665 7.09 13.758 8.98 5.552 2.063 13.652 3.7 21.03 4.256.586.04 19.885.094 42.89.115l41.824.038 1.97-.685z" fill="#fff"/></symbol></svg>