<?xml version="1.0" encoding="UTF-8"?><!DOCTYPE svg PUBLIC "-//W3C//DTD SVG 1.1//EN" "http://www.w3.org/Graphics/SVG/1.1/DTD/svg11.dtd"><svg xmlns="http://www.w3.org/2000/svg"><symbol id="facebook" viewBox="0 0 512 512"><path d="M411.945 50h-312c-27.614 0-50 22.386-50 50v312c0 27.614 22.386 50 50 50h312c27.614 0 50-22.386 50-50V100c0-27.614-22.385-50-50-50zm-88.257 110.658H291.7c-11.29 0-13.645 4.625-13.645 16.31v28.226h45.633l-4.39 49.55h-41.243v148.03h-59.11v-147.4h-30.74v-50.18h30.74V165.68c0-37.087 19.83-56.452 63.817-56.452h40.926v51.433z"/></symbol><symbol id="instagram" viewBox="0 0 512 512"><path d="M341.205 197.143H460.93v183.795c0 44.77-36.292 81.062-81.062 81.062H132.133c-44.77 0-81.062-36.293-81.062-81.062V197.143h119.19c-12.2 17.14-19.4 38.087-19.4 60.73 0 57.918 46.96 104.87 104.88 104.87s104.87-46.953 104.87-104.87c0-22.644-7.2-43.59-19.4-60.73zm119.725-66.08V184.3H330.447c-19.022-19.314-45.465-31.3-74.714-31.3-29.25 0-55.693 11.985-74.714 31.3H51.07v-53.238c0-27.322 13.532-51.47 34.245-66.154v87.29h16.62v-96.36c3.77-1.517 7.68-2.753 11.704-3.692v100.052h16.62V50.048c.62-.016 1.24-.048 1.87-.048h9.6v102.196h16.62V50h221.52c44.77 0 81.06 36.292 81.06 81.062zm-37.05-34.166c0-7.18-5.823-13.002-13.004-13.002h-43.82c-7.184 0-13.004 5.82-13.004 13.002v44.785c0 7.18 5.82 13.002 13.003 13.002h43.82c7.182 0 13.004-5.82 13.004-13.002V96.897zM174.937 257.872c0-24.188 10.698-45.91 27.593-60.73 5.927-5.196 12.614-9.538 19.876-12.84 10.17-4.626 21.447-7.225 33.327-7.225 11.88 0 23.157 2.6 33.326 7.224 7.26 3.31 13.95 7.65 19.87 12.85 16.893 14.82 27.59 36.54 27.59 60.73 0 44.55-36.243 80.793-80.794 80.793-44.55 0-80.795-36.244-80.795-80.794zm21.348 0c0 32.98 26.735 59.712 59.714 59.712 32.98 0 59.71-26.733 59.71-59.712 0-32.98-26.737-59.713-59.717-59.713s-59.715 26.73-59.715 59.71z"/></symbol><symbol id="linkedin" viewBox="0 0 512 512"><path d="M411.945 50h-312c-27.614 0-50 22.386-50 50v312c0 27.614 22.386 50 50 50h312c27.614 0 50-22.386 50-50V100c0-27.614-22.385-50-50-50zm-230.95 342.99H124.46V210.336h56.536V392.99zm-28.538-206.573c-18.465 0-33.432-15.09-33.432-33.703 0-18.614 14.967-33.704 33.432-33.704 18.463 0 33.432 15.09 33.432 33.704 0 18.613-14.97 33.703-33.434 33.703zM392.865 392.99h-56.262v-95.88c0-26.297-9.988-40.975-30.78-40.975-22.63 0-34.454 15.29-34.454 40.974v95.88h-54.225V210.335h54.223v24.6s16.308-30.172 55.04-30.172 66.455 23.648 66.455 72.572V392.99z"/></symbol><symbol id="tumblr" viewBox="0 0 512 512"><path d="M411.945 50h-312c-27.614 0-50 22.386-50 50v312c0 27.614 22.386 50 50 50h312c27.614 0 50-22.386 50-50V100c0-27.614-22.385-50-50-50zm-67.35 334.518c-12.32 5.8-23.478 9.856-33.458 12.19-9.985 2.327-20.783 3.492-32.39 3.492-13.175 0-24.822-1.665-34.944-4.985-10.133-3.328-18.77-8.067-25.916-14.226-7.15-6.16-12.11-12.71-14.87-19.647-2.764-6.932-4.14-16.98-4.14-30.148v-101.07h-31.582v-41.09c11.29-3.673 20.955-8.945 29.004-15.805 8.05-6.862 14.506-15.096 19.372-24.72 4.87-9.62 8.225-21.85 10.062-36.71H266.6v73.05h68.484v45.276H266.6v73.97c0 16.72.882 27.454 2.653 32.2 1.772 4.748 5.07 8.543 9.885 11.367 6.373 3.833 13.673 5.742 21.89 5.742 14.593 0 29.116-4.747 43.567-14.242v45.354z"/></symbol><symbol id="twitter" viewBox="0 0 512 512"><path d="M412 50H100c-27.614 0-50 22.386-50 50v312c0 27.614 22.386 50 50 50h312c27.614 0 50-22.386 50-50V100c0-27.614-22.386-50-50-50zm-40.058 157.125c3.553 79.06-55.408 167.203-159.768 167.203-31.743 0-61.29-9.305-86.164-25.253 29.82 3.515 59.586-4.758 83.218-23.278-24.596-.453-45.356-16.703-52.508-39.035 8.808 1.684 17.473 1.19 25.383-.962-27.03-5.433-45.692-29.784-45.083-55.826 7.577 4.21 16.245 6.74 25.46 7.032-25.034-16.73-32.12-49.786-17.396-75.045 27.723 34.008 69.143 56.387 115.857 58.73-8.197-35.16 18.476-69.02 54.757-69.02 16.168 0 30.776 6.827 41.03 17.75 12.803-2.52 24.832-7.196 35.693-13.637-4.198 13.126-13.11 24.14-24.716 31.098 11.37-1.356 22.204-4.38 32.284-8.85-7.534 11.27-17.062 21.17-28.046 29.096z"/></symbol></svg>