<?xml version="1.0" encoding="utf-8"?>


<!-- The icon can be used freely in both personal and commercial projects with no attribution required, but always appreciated. 
You may NOT sub-license, resell, rent, redistribute or otherwise transfer the icon without express written permission from iconmonstr.com -->


<!DOCTYPE svg PUBLIC "-//W3C//DTD SVG 1.1//EN" "http://www.w3.org/Graphics/SVG/1.1/DTD/svg11.dtd">

<svg version="1.1" xmlns="http://www.w3.org/2000/svg" xmlns:xlink="http://www.w3.org/1999/xlink" x="0px" y="0px"

	 width="512px" height="512px" viewBox="0 0 512 512" enable-background="new 0 0 512 512" xml:space="preserve">

<path id="tumblr-square-rounded-icon" d="M411.945,50h-312c-27.614,0-50,22.386-50,50v312c0,27.614,22.386,50,50,50h312

	c27.614,0,50-22.386,50-50V100C461.945,72.386,439.56,50,411.945,50z M344.596,384.518c-12.322,5.8-23.479,9.856-33.459,12.191

	c-9.985,2.326-20.783,3.491-32.391,3.491c-13.174,0-24.821-1.665-34.943-4.985c-10.133-3.328-18.771-8.067-25.916-14.226

	c-7.15-6.159-12.111-12.708-14.869-19.644c-2.765-6.932-4.141-16.98-4.141-30.148v-101.07h-31.582v-41.089

	c11.291-3.674,20.955-8.946,29.004-15.806c8.053-6.863,14.509-15.097,19.375-24.721c4.871-9.619,8.225-21.849,10.062-36.71h40.864

	v73.052h68.484v45.274h-68.484v73.97c0,16.72,0.882,27.454,2.653,32.2c1.772,4.748,5.069,8.543,9.885,11.367

	c6.373,3.833,13.673,5.742,21.889,5.742c14.594,0,29.117-4.747,43.568-14.242V384.518z"/>

</svg>

