<?xml version="1.0" encoding="utf-8"?>
<!-- Generator: Adobe Illustrator 17.0.0, SVG Export Plug-In . SVG Version: 6.00 Build 0)  -->
<!DOCTYPE svg PUBLIC "-//W3C//DTD SVG 1.1//EN" "http://www.w3.org/Graphics/SVG/1.1/DTD/svg11.dtd">
<svg version="1.1" xmlns="http://www.w3.org/2000/svg" xmlns:xlink="http://www.w3.org/1999/xlink" x="0px" y="0px"
	 width="384.309px" height="384.309px" viewBox="0 0 384.309 384.309" enable-background="new 0 0 384.309 384.309"
	 xml:space="preserve">
<g id="Layer_1">
	<g>
		<circle fill="#93C3CE" cx="192.154" cy="192.154" r="192.154"/>
		<path fill="#DE4344" d="M87.041,101.505c0,0,11.511-3.366,9.105,9.105c0,0-3.794,11.571-17.073,3.225
			c0,0-9.257-8.306,4.055-22.306c0,0,26.738-30.809,42.04-6.402c0,0,27.316-27.235,27.316-1.77c0,0,35.663-28.328,21.436,16.63
			c0,0-33.007,58.426-6.829,65.255c0,0,3.415,1.138,8.347-2.845c0,0,1.518,6.26-6.07,7.967c0,0-44.578,10.623-5.501-67.531
			c0,0,15.555-29.159-11.761-5.853c0,0-39.836,79.455-29.972,35.825c0,0,16.693-33.386,15.176-40.974
			c-1.518-7.588-9.864,0.054-13.658,5.149c-3.794,5.095-15.555,48.108-22.763,49.175s-9.105-6.9,12.899-44.08
			S82.678,96.762,87.041,101.505z"/>
		<g>
			<path fill="#DE4344" d="M50.043,242.399c9.045,0,16.896-0.174,26.275-0.855c0.514,0,0.855,0.34,0.855,0.681
				c0,0.681-0.681,1.535-1.876,1.535c-9.212,0.855-16.382,0.855-25.253,0.855c0,1.535-0.174,2.904-0.174,4.439
				c-0.507,15.187-0.855,29.693-1.021,44.879c9.552,0.167,11.262,0.34,12.971,0.34c4.946,0,9.893-0.174,15.013-0.514
				c0.855,0,1.195,0.514,1.195,1.195c0,0.514-0.514,1.362-1.362,1.362c-4.613,0.347-9.219,0.514-13.651,0.514
				c-5.461,0-10.754-0.167-15.875-0.514c-0.34,0-0.507-0.34-0.507-0.681c0.34-21.161,1.021-41.975,1.021-62.623
				c0-13.485-0.174-27.817-1.021-41.635c0.167-0.688,0.848-1.709,1.876-1.709c5.801,0,10.581,0.167,16.041,0.167
				s9.212-0.167,12.623-0.167c1.195,0,1.195,0.514,1.195,0.855c0,0.34-0.167,1.195-1.362,1.195c-2.223,0-7.684,0.167-13.311,0.167
				c-3.758,0-8.705,0.174-14.68,0.174c0.855,12.964,1.028,26.448,1.028,39.078V242.399z"/>
			<path fill="#DE4344" d="M84.188,272.94c0-0.507,0.688-1.021,1.369-1.021c0.514,0,1.021,0.514,1.195,0.855
				c0,2.049-0.174,4.092-0.174,6.482c0,4.439,0.688,8.872,3.758,12.116c2.216,2.564,4.266,3.758,7.163,3.758
				c3.758,0,7.684-1.709,9.559-5.294c2.897-5.287,3.411-11.776,3.411-17.917c0-3.925-0.174-7.677-0.174-11.262
				c0-15.868-13.304-21.675-22.183-32.937c-3.071-3.925-3.585-9.212-3.585-14.159c0-4.099,0.514-9.045,0.855-12.804
				c0-0.681-0.34-1.021-0.34-1.535c0-0.167,0-0.681,0.34-1.021c1.883-6.655,6.996-8.872,13.311-8.872
				c3.585,0,6.655,0.167,8.705,2.557c3.925,4.606,4.432,11.095,4.432,17.41c0,3.237-0.167,6.996-0.167,9.893
				c-0.174,0.514-0.855,0.681-1.369,0.681c-0.507,0-1.362-0.167-1.362-0.848v-6.315c0-7.51-0.514-17.75-5.461-20.988l-4.78-0.34
				c-3.585,0-4.432,0-7.51,2.216c-1.362,1.702-2.216,2.897-3.237,4.78c0,4.606-0.855,10.407-0.855,15.694
				c0,3.418,0.34,6.655,1.709,9.559c4.432,9.045,16.208,13.818,21.495,25.767c2.223,5.12,2.904,10.581,2.904,15.868
				c0,4.266-0.34,8.365-0.34,12.797c0,9.045-4.606,18.945-14.846,18.945c-3.925,0-6.829-1.369-9.386-3.925
				c-4.439-4.099-4.439-13.144-4.439-18.945V272.94z"/>
			<path fill="#DE4344" d="M125.163,189.496c2.216,0,4.266-0.167,6.482-0.167c5.294,0,10.074,0.855,13.992,5.801
				c3.244,3.925,4.273,9.552,4.273,15.013c0,2.564-0.174,4.78-0.347,6.996c-0.507,4.953-1.188,9.726-2.216,14.68
				c-2.216,10.407-4.78,12.116-15.701,13.992c-2.39,0.34-4.773,0.34-7.163,0.34c0.34,9.386,0.681,18.598,0.681,27.643
				c0,7.17,0,15.36-1.021,22.356c-0.174,0.681-0.688,0.855-1.369,0.855c-0.514,0-1.362-0.174-1.362-1.028
				c0.848-6.822,1.021-14.673,1.021-21.502c0-13.818-1.021-27.469-1.021-41.295c0-7.336,0.167-15.013,0.848-22.697
				c0-3.752,0-5.461,0.514-6.822c0-4.439-0.167-8.705-0.167-13.137c0-0.855,0.848-0.855,1.188-1.028H125.163z M125.504,194.957
				c0,11.949-1.362,24.232-1.362,36.181c0,6.141,0.34,9.038,0.34,12.623c6.141,0,11.262-1.021,17.062-3.411
				c2.049-2.564,4.78-12.797,4.78-17.577c0.34-3.925,0.855-7.85,0.855-11.602c0-8.024-0.514-14.846-10.074-19.112
				c-1.535,0-3.237-0.34-4.946-0.34c-2.216,0-4.606,0.167-6.655,0.167V194.957z"/>
			<path fill="#DE4344" d="M165.451,249.902c-1.362,0.347-4.092,0.347-5.627,0.347c0.167,4.092,0.167,7.843,0.167,11.769
				c0,12.804-0.848,23.551-0.848,34.132c0,0.681-0.855,0.855-1.369,0.855c-0.681,0-1.362-0.174-1.362-1.028
				c1.362-34.639,1.702-70.473,1.702-105.112c0-0.681,0.855-0.681,1.195-1.028c1.028,0,3.071-0.167,5.461-0.167
				c5.801,0,13.825,0.681,16.722,4.432c2.39,3.078,2.564,9.733,2.564,15.194c0,27.984,0,38.564-14.506,40.44
				c3.925,10.067,6.996,21.161,9.552,31.395c1.369,4.953,2.39,10.24,4.613,15.02c0,0.167-1.195,0.855-1.883,0.855
				c-0.34,0-0.507-0.174-0.848-0.34c-2.39-4.78-3.418-10.414-4.78-15.36c-2.564-10.24-5.461-21.328-9.212-31.402H165.451z
				 M161.873,248.2l5.627-0.681c0,0,0.34-0.174,0.514-0.174c0.34,0,0.514,0.174,0.681,0.174c1.876,0,2.564,0,3.585-0.347
				c5.461-1.876,8.017-6.649,8.531-12.283c0.681-4.439,0.855-9.045,0.855-13.992c0-4.953-0.174-10.581-0.34-14.846
				c-0.514-3.411,0-9.045-2.904-11.602c-2.557-2.049-9.045-2.223-13.651-2.223h-4.092c0,12.797-0.34,25.601-0.34,37.883v6.315
				c0,3.925-0.514,7.677-0.514,11.602L161.873,248.2z"/>
			<path fill="#DE4344" d="M195.678,242.399c9.045,0,16.896-0.174,26.282-0.855c0.507,0,0.848,0.34,0.848,0.681
				c0,0.681-0.681,1.535-1.876,1.535c-9.212,0.855-16.382,0.855-25.253,0.855c0,1.535-0.174,2.904-0.174,4.439
				c-0.507,15.187-0.848,29.693-1.021,44.879c9.552,0.167,11.262,0.34,12.971,0.34c4.946,0,9.893-0.174,15.013-0.514
				c0.855,0,1.195,0.514,1.195,1.195c0,0.514-0.514,1.362-1.362,1.362c-4.613,0.347-9.219,0.514-13.651,0.514
				c-5.461,0-10.754-0.167-15.874-0.514c-0.34,0-0.507-0.34-0.507-0.681c0.34-21.161,1.021-41.975,1.021-62.623
				c0-13.485-0.174-27.817-1.021-41.635c0.167-0.688,0.848-1.709,1.876-1.709c5.801,0,10.581,0.167,16.041,0.167
				c5.461,0,9.212-0.167,12.623-0.167c1.195,0,1.195,0.514,1.195,0.855c0,0.34-0.167,1.195-1.362,1.195
				c-2.223,0-7.684,0.167-13.311,0.167c-3.752,0-8.705,0.174-14.673,0.174c0.848,12.964,1.021,26.448,1.021,39.078V242.399z"/>
			<path fill="#DE4344" d="M229.824,272.94c0-0.507,0.688-1.021,1.369-1.021c0.514,0,1.021,0.514,1.195,0.855
				c0,2.049-0.174,4.092-0.174,6.482c0,4.439,0.681,8.872,3.758,12.116c2.216,2.564,4.266,3.758,7.163,3.758
				c3.758,0,7.684-1.709,9.559-5.294c2.897-5.287,3.411-11.776,3.411-17.917c0-3.925-0.174-7.677-0.174-11.262
				c0-15.868-13.304-21.675-22.183-32.937c-3.071-3.925-3.578-9.212-3.578-14.159c0-4.099,0.507-9.045,0.848-12.804
				c0-0.681-0.34-1.021-0.34-1.535c0-0.167,0-0.681,0.34-1.021c1.876-6.655,6.996-8.872,13.311-8.872
				c3.585,0,6.655,0.167,8.705,2.557c3.925,4.606,4.439,11.095,4.439,17.41c0,3.237-0.174,6.996-0.174,9.893
				c-0.174,0.514-0.855,0.681-1.369,0.681c-0.507,0-1.362-0.167-1.362-0.848v-6.315c0-7.51-0.514-17.75-5.461-20.988l-4.78-0.34
				c-3.585,0-4.432,0-7.51,2.216c-1.362,1.702-2.216,2.897-3.237,4.78c0,4.606-0.855,10.407-0.855,15.694
				c0,3.418,0.34,6.655,1.709,9.559c4.432,9.045,16.208,13.818,21.495,25.767c2.223,5.12,2.904,10.581,2.904,15.868
				c0,4.266-0.34,8.365-0.34,12.797c0,9.045-4.606,18.945-14.846,18.945c-3.925,0-6.829-1.369-9.386-3.925
				c-4.439-4.099-4.439-13.144-4.439-18.945V272.94z"/>
			<path fill="#DE4344" d="M266.36,272.94c0-0.507,0.688-1.021,1.369-1.021c0.514,0,1.021,0.514,1.195,0.855
				c0,2.049-0.174,4.092-0.174,6.482c0,4.439,0.688,8.872,3.758,12.116c2.216,2.564,4.266,3.758,7.163,3.758
				c3.758,0,7.684-1.709,9.559-5.294c2.897-5.287,3.411-11.776,3.411-17.917c0-3.925-0.174-7.677-0.174-11.262
				c0-15.868-13.304-21.675-22.183-32.937c-3.071-3.925-3.585-9.212-3.585-14.159c0-4.099,0.514-9.045,0.854-12.804
				c0-0.681-0.34-1.021-0.34-1.535c0-0.167,0-0.681,0.34-1.021c1.883-6.655,6.996-8.872,13.311-8.872
				c3.585,0,6.655,0.167,8.705,2.557c3.925,4.606,4.432,11.095,4.432,17.41c0,3.237-0.167,6.996-0.167,9.893
				c-0.174,0.514-0.855,0.681-1.369,0.681c-0.507,0-1.362-0.167-1.362-0.848v-6.315c0-7.51-0.514-17.75-5.461-20.988l-4.78-0.34
				c-3.585,0-4.432,0-7.51,2.216c-1.362,1.702-2.216,2.897-3.237,4.78c0,4.606-0.854,10.407-0.854,15.694
				c0,3.418,0.34,6.655,1.709,9.559c4.432,9.045,16.208,13.818,21.495,25.767c2.223,5.12,2.904,10.581,2.904,15.868
				c0,4.266-0.34,8.365-0.34,12.797c0,9.045-4.606,18.945-14.846,18.945c-3.925,0-6.829-1.369-9.386-3.925
				c-4.439-4.099-4.439-13.144-4.439-18.945V272.94z"/>
			<path fill="#DE4344" d="M320.305,188.641c8.191,0,11.262,10.581,13.311,17.577c3.411,11.095,4.946,23.037,4.946,34.986
				c0,10.24-1.195,20.814-2.557,30.373c-1.369,8.531-4.273,25.767-16.041,25.767c-10.074,0-13.311-14.332-15.187-22.356
				c-2.39-10.747-3.585-21.842-3.585-32.93c0-9.9,1.021-19.966,2.897-29.693C305.626,203.835,310.239,188.641,320.305,188.641z
				 M333.102,271.238c1.535-9.219,2.39-18.772,2.39-28.498c0-8.531-0.681-17.41-2.223-26.108
				c-1.188-6.315-5.113-25.253-12.964-26.108c-9.219,1.362-11.949,14.846-13.311,22.009c-1.876,9.9-2.904,19.966-2.904,29.866
				c0,10.921,1.195,21.842,3.418,32.423c1.535,6.649,3.578,16.034,10.233,19.619c1.028,0.514,2.904,0.514,3.244,0.514
				c0.174,0,1.362-0.514,2.216-0.681C330.031,288.64,331.733,279.769,333.102,271.238z"/>
		</g>
		<line fill="none" stroke="#DE4344" stroke-miterlimit="10" x1="84.188" y1="161.302" x2="141.805" y2="161.302"/>
		<line fill="none" stroke="#DE4344" stroke-miterlimit="10" x1="179.346" y1="161.302" x2="295.371" y2="161.302"/>
	</g>
</g>
<g id="Layer_2">
	<path fill="#DE4344" d="M214.562,99.686c0,0-14.724-1.963-27.637,17.727c-9.272,14.139-10.504,31.782,10.829,30.559
		c0,0,8.7,0.881,13.433-5.531c4.733-6.412,11.483-3.291,14.983-2.977c3.5,0.315,17.167-6.602,12.619-13.145
		c-1.082-1.557-7.958,9.141-13.455,8.425c0,0-3.581,0.763-4.081-1.56c0,0,2.854,0.431,3.208-6.531
		c0.375-7.375,1.178-22.179-4.42-21.594c-3.288,0.344-3.234-0.679-2.625,6.646c0.211,2.533-0.109,13.315-1.313,13.537
		s-11.434-3.756-11.27,8.001c0.049,3.474,3.092,4.004,4.09,4.692c1.162,0.801-10.86,11.588-14.145-3.206
		c-0.193-0.868,5.424-22.343,16.208-30.589C215.321,100.829,215.921,99.904,214.562,99.686z"/>
	<path fill="#DE4344" d="M254.654,97.226c-15.728,4.984-17.173-18.145,0.122-14.504c4.976,1.048,11.361,16.436,1.169,24.054
		s-12.358,6.163-11.866,5.422C245.171,110.55,256.13,96.758,254.654,97.226z"/>
	<path fill="#DE4344" d="M269.862,113.01c4.767,13.477,2.976,23.352-12.345,26.519c-2.247,0.465,4.341,2.387,5.419,3.102
		c0.851,0.565,8.963,4.647,27.139-2.863c5.22-2.157,14.458-17.663,8.82-19.629c-2.349-0.819-11.041,15.049-11.665,10.926
		c-0.296-1.957,0.695-31.142-11.718-32.907c-4.133-0.588-7.291,3.683-10.796,11.144c-3.505,7.461-8.036,15.581-3.957,15.8
		C264.838,125.321,269.07,110.77,269.862,113.01z"/>
</g>
</svg>
