<?xml version="1.0" encoding="UTF-8" standalone="no"?>
<svg
   xmlns:dc="http://purl.org/dc/elements/1.1/"
   xmlns:cc="http://creativecommons.org/ns#"
   xmlns:rdf="http://www.w3.org/1999/02/22-rdf-syntax-ns#"
   xmlns:svg="http://www.w3.org/2000/svg"
   xmlns="http://www.w3.org/2000/svg"
   xmlns:xlink="http://www.w3.org/1999/xlink"
   xml:space="preserve"
   id="Layer_1"
   viewBox="0 0 384.30801 384.30801"
   height="384.30801"
   width="384.30801"
   version="1.1"><metadata
     id="metadata13"><rdf:RDF><cc:Work
         rdf:about=""><dc:format>image/svg+xml</dc:format><dc:type
           rdf:resource="http://purl.org/dc/dcmitype/StillImage" /><dc:title></dc:title></cc:Work></rdf:RDF></metadata><defs
     id="defs11"><linearGradient
       id="linearGradient7223"><stop
         offset="0"
         style="stop-color:#de4344;stop-opacity:1"
         id="stop7225" /></linearGradient><linearGradient
       gradientUnits="userSpaceOnUse"
       xlink:href="#linearGradient7223"
       id="linearGradient7227"
       y2="180.9798"
       x2="337.6192"
       y1="180.9798"
       x1="42.7136" /></defs><circle
     cx="192.15401"
     cy="192.15401"
     r="192.15401"
     id="circle5"
     style="fill:#b4dcb3;fill-opacity:1" /><g
     id="g4228"
     transform="matrix(0.49416396,0,0,0.49416396,81.038499,54.362443)"><g
       id="_x31_MH74W_1_"><g
         id="g4231"><path
           id="path4233"
           d="M 265.436,72.484 C 277.301,45.054 292.394,20.131 314.621,0 c -42.813,8.623 -70.344,37.556 -94.897,70.795 -0.243,-1.828 -0.223,-3.397 0.404,-4.665 4.974,-10.061 10.188,-20.005 15.01,-30.137 0.922,-1.938 1.486,-5.457 0.42,-6.678 -3.843,-4.4 -20.496,-4.793 -25.205,-1.02 -19.504,15.629 -34.63,34.763 -45.591,57.212 -1.17,2.395 -2.456,4.734 -3.993,7.685 C 143.988,69.642 121.4,65.08 95.116,68.244 c 18.049,20.939 26.291,47.515 21.312,67.286 -10.16,0.67 -20.326,1.113 -30.446,2.052 -29.105,2.701 -44.625,17.964 -45.209,47.16 -0.847,42.379 -0.858,84.798 -0.036,127.177 0.524,27.009 14.258,41.343 40.667,45.441 6.683,1.037 13.518,1.513 20.285,1.529 63.332,0.147 126.665,0.156 189.998,0.162 17.01,0.001 34.034,0.267 51.026,-0.316 28.82,-0.988 44.865,-14.238 49.012,-40.031 1.076,-6.692 1.654,-13.535 1.687,-20.312 0.167,-33.759 0.16,-67.519 0.003,-101.278 -0.03,-6.517 -0.664,-13.08 -1.606,-19.536 -3.293,-22.572 -14.563,-34.917 -37.085,-38.427 -13.876,-2.162 -28.101,-2.1 -42.173,-2.971 -2.653,-0.164 -5.324,-0.024 -9.305,-0.024 20.753,-25.125 32.318,-54.851 57.086,-75.116 -10.79,2.125 -21.463,4.372 -31.398,8.427 -10.186,4.158 -19.65,10.084 -29.431,15.236 -0.334,-0.248 -0.669,-0.496 -1.003,-0.744 8.037,-10.705 16.073,-21.41 24.065,-32.055 -11.33,-11.981 -13.182,-12.535 -25.62,-3.726 -10.815,7.662 -21.029,16.172 -31.509,24.306 z"
           style="fill:#ffffff" /><path
           id="path4235"
           d="m 265.436,72.484 c 10.48,-8.134 20.694,-16.644 31.51,-24.305 12.438,-8.809 14.29,-8.255 25.62,3.726 -7.991,10.645 -16.028,21.35 -24.065,32.055 0.334,0.248 0.669,0.496 1.003,0.744 9.78,-5.152 19.245,-11.078 29.431,-15.236 9.935,-4.055 20.607,-6.303 31.398,-8.427 -24.767,20.264 -36.332,49.99 -57.086,75.116 3.981,0 6.652,-0.141 9.305,0.024 14.072,0.872 28.297,0.809 42.173,2.971 22.521,3.509 33.792,15.855 37.085,38.427 0.942,6.456 1.576,13.019 1.606,19.536 0.157,33.759 0.164,67.519 -0.003,101.278 -0.034,6.777 -0.611,13.62 -1.687,20.312 -4.147,25.793 -20.191,39.042 -49.012,40.031 -16.992,0.583 -34.016,0.317 -51.026,0.316 -63.333,-0.006 -126.665,-0.015 -189.998,-0.162 -6.767,-0.016 -13.602,-0.492 -20.285,-1.529 -26.409,-4.098 -40.143,-18.432 -40.667,-45.441 -0.822,-42.379 -0.812,-84.799 0.036,-127.177 0.584,-29.196 16.104,-44.46 45.209,-47.16 10.12,-0.939 20.286,-1.382 30.446,-2.052 4.979,-19.771 -3.263,-46.347 -21.312,-67.286 26.284,-3.164 48.872,1.398 65.653,24.949 1.538,-2.952 2.824,-5.29 3.993,-7.685 10.961,-22.449 26.087,-41.583 45.591,-57.212 4.709,-3.773 21.362,-3.38 25.205,1.02 1.066,1.221 0.502,4.74 -0.42,6.678 -4.822,10.132 -10.036,20.076 -15.01,30.137 -0.627,1.269 -0.647,2.838 -0.404,4.665 C 244.277,37.556 271.808,8.623 314.621,0 292.394,20.131 277.301,45.054 265.436,72.484 Z"
           style="fill:#e27171" /></g></g><path
       id="path4237"
       d="m 23.988,354.839 c -1.016,4.727 -7.178,7.411 -13.762,5.996 l 0,0 C 3.641,359.42 -0.873,354.44 0.143,349.714 L 26.747,225.946 c 1.016,-4.727 7.178,-7.411 13.762,-5.996 l 0,0 c 6.585,1.415 11.099,6.395 10.083,11.121 L 23.988,354.839 Z"
       style="fill:#e27171" /><path
       id="path4239"
       d="m 449.341,344.005 c 1.617,4.556 -2.218,10.076 -8.566,12.328 l 0,0 c -6.347,2.252 -12.804,0.385 -14.42,-4.172 L 384.02,232.855 c -1.617,-4.556 2.218,-10.076 8.566,-12.328 l 0,0 c 6.347,-2.252 12.804,-0.385 14.42,4.172 l 42.335,119.306 z"
       style="fill:#e27171" /><path
       id="path4241"
       d="m 144.198,439.282 c -0.178,3.372 -6.361,5.979 -13.81,5.822 l 0,0 c -7.449,-0.157 -13.343,-3.017 -13.165,-6.389 l 4.665,-88.301 c 0.178,-3.372 6.361,-5.979 13.81,-5.822 l 0,0 c 7.449,0.157 13.343,3.017 13.165,6.389 l -4.665,88.301 z"
       style="fill:#e27171" /><path
       id="path4243"
       d="m 299.108,439.194 c -0.114,3.373 -6.246,6.027 -13.697,5.927 l 0,0 c -7.451,-0.1 -13.399,-2.916 -13.286,-6.289 l 2.978,-88.33 c 0.114,-3.373 6.246,-6.027 13.697,-5.927 l 0,0 c 7.451,0.1 13.399,2.916 13.286,6.289 l -2.978,88.33 z"
       style="fill:#e27171" /><circle
       id="circle4245"
       r="19.952"
       cy="441.15601"
       cx="132.23599"
       style="fill:#e27171" /><circle
       id="circle4247"
       r="19.952"
       cy="441.15601"
       cx="287.10501"
       style="fill:#e27171" /><path
       id="path4249"
       d="m 140.271,541.214 c -0.178,3.563 -6.361,6.317 -13.81,6.151 l 0,0 c -7.449,-0.165 -13.343,-3.188 -13.165,-6.75 l 4.665,-93.287 c 0.178,-3.563 6.361,-6.317 13.81,-6.151 l 0,0 c 7.449,0.165 13.343,3.188 13.165,6.75 l -4.665,93.287 z"
       style="fill:#e27171" /><path
       id="path4251"
       d="m 295.181,541.121 c -0.114,3.564 -6.246,6.367 -13.698,6.262 l 0,0 c -7.451,-0.106 -13.399,-3.08 -13.286,-6.644 l 2.978,-93.318 c 0.114,-3.564 6.246,-6.367 13.697,-6.262 l 0,0 c 7.451,0.106 13.399,3.08 13.286,6.644 l -2.977,93.318 z"
       style="fill:#e27171" /><path
       id="path4253"
       d="m 140.834,518.216 c 0,0 -57.977,1.318 -61.93,14.494 -3.953,13.176 11.859,19.765 18.447,21.082 6.588,1.318 42.165,-6.421 43.482,-9.799 1.317,-3.378 0.001,-25.777 0.001,-25.777 z"
       style="fill:#e27171" /><path
       id="path4255"
       d="m 269.091,521.95 c 0,0 57.977,1.318 61.93,14.494 3.953,13.177 -11.859,19.765 -18.447,21.082 -6.588,1.318 -42.165,-6.421 -43.482,-9.799 -1.319,-3.377 -10e-4,-25.777 -10e-4,-25.777 z"
       style="fill:#e27171" /></g></svg>