<?xml version="1.0" encoding="utf-8"?>
<!-- Generator: Adobe Illustrator 17.0.0, SVG Export Plug-In . SVG Version: 6.00 Build 0)  -->
<svg version="1.2" baseProfile="tiny"
	 id="Layer_1" xmlns:svg="http://www.w3.org/2000/svg" xmlns:rdf="http://www.w3.org/1999/02/22-rdf-syntax-ns#" xmlns:dc="http://purl.org/dc/elements/1.1/" xmlns:cc="http://creativecommons.org/ns#"
	 xmlns="http://www.w3.org/2000/svg" xmlns:xlink="http://www.w3.org/1999/xlink" x="0px" y="0px" width="384.222px"
	 height="384.222px" viewBox="0 0 384.222 384.222" xml:space="preserve">
<g id="g3" transform="translate(-29.804001,-30.125)">
	<circle id="circle5" fill="#F4E1D9" cx="221.915" cy="222.236" r="192.111"/>
</g>
<g>
	<path fill="#F69D85" d="M284.5,229.784h-20.103v-32.961H120.093v32.961h-19.699c-4.719,0-8.544,9.004-8.544,20.112v18.994h201.195
		v-18.994C293.045,238.788,289.219,229.784,284.5,229.784z M104.191,256.041c-1.835,0-3.323-3.502-3.323-7.821
		s1.488-7.821,3.323-7.821s3.323,3.502,3.323,7.821S106.027,256.041,104.191,256.041z M148.278,256.041
		c-1.835,0-3.323-3.502-3.323-7.821s1.488-7.821,3.323-7.821c1.835,0,3.085,3.502,3.085,7.821S150.113,256.041,148.278,256.041z
		 M191.889,256.041c-1.835,0-3.323-3.502-3.323-7.821s1.488-7.821,3.323-7.821s3.323,3.502,3.323,7.821
		S193.724,256.041,191.889,256.041z M235.975,256.041c-1.835,0-3.323-3.502-3.323-7.821s1.488-7.821,3.323-7.821
		c1.835,0,3.323,3.502,3.323,7.821S237.811,256.041,235.975,256.041z M279.824,256.041c-1.835,0-3.323-3.502-3.323-7.821
		s1.488-7.821,3.323-7.821c1.835,0,3.323,3.502,3.323,7.821S281.659,256.041,279.824,256.041z"/>
	<path fill="#F69D85" d="M91.85,314.667c0,11.107,3.825,20.112,8.544,20.112H284.5c4.719,0,8.544-9.004,8.544-20.112v-39.073H91.85
		V314.667z"/>
	<path fill="#F69D85" d="M264.397,177.27c0-11.107-3.889-20.112-8.687-20.112h-17.889v-27.421h-95.218v27.421h-13.823
		c-4.798,0-8.687,9.004-8.687,20.112v12.849h144.304V177.27z M131.96,181.304c-1.835,0-3.323-3.502-3.323-7.821
		s1.488-7.821,3.323-7.821c1.835,0,3.323,3.502,3.323,7.821S133.796,181.304,131.96,181.304z M171.893,181.304
		c-1.835,0-3.323-3.502-3.323-7.821s1.488-7.821,3.323-7.821c1.835,0,3.085,3.502,3.085,7.821S173.728,181.304,171.893,181.304z
		 M211.589,181.304c-1.835,0-3.323-3.502-3.323-7.821s1.488-7.821,3.323-7.821c1.835,0,3.323,3.502,3.323,7.821
		S213.424,181.304,211.589,181.304z M251.403,181.304c-1.835,0-3.323-3.502-3.323-7.821s1.488-7.821,3.323-7.821
		c1.835,0,3.323,3.502,3.323,7.821S253.238,181.304,251.403,181.304z"/>
	<path fill="#F69D85" d="M237.821,114.142c0-11.107-3.532-20.112-7.889-20.112h-79.439c-4.357,0-7.889,9.004-7.889,20.112v8.892
		h95.218V114.142z M156.778,114.291c-1.549,0-2.805-3.502-2.805-7.821s1.256-7.821,2.805-7.821s2.805,3.502,2.805,7.821
		S158.327,114.291,156.778,114.291z M190.488,114.291c-1.549,0-2.805-3.502-2.805-7.821s1.256-7.821,2.805-7.821
		s2.605,3.502,2.605,7.821S192.037,114.291,190.488,114.291z M223.997,114.291c-1.549,0-2.805-3.502-2.805-7.821
		s1.256-7.821,2.805-7.821s2.805,3.502,2.805,7.821S225.546,114.291,223.997,114.291z"/>
	<polygon fill="#A55B52" points="91.648,268.89 91.648,275.594 91.85,275.594 293.045,275.594 293.045,268.89 91.85,268.89 	"/>
	<ellipse fill="#A55B52" cx="104.191" cy="248.22" rx="3.323" ry="7.821"/>
	<ellipse fill="#A55B52" cx="279.824" cy="248.22" rx="3.323" ry="7.821"/>
	<ellipse fill="#A55B52" cx="191.889" cy="248.22" rx="3.323" ry="7.821"/>
	<ellipse fill="#A55B52" cx="235.975" cy="248.22" rx="3.323" ry="7.821"/>
	<path fill="#A55B52" d="M148.278,240.399c-1.835,0-3.323,3.502-3.323,7.821s1.488,7.821,3.323,7.821
		c1.835,0,3.085-3.502,3.085-7.821S150.113,240.399,148.278,240.399z"/>
	<rect x="120.093" y="190.12" fill="#A55B52" width="144.304" height="6.704"/>
	<ellipse fill="#A55B52" cx="131.96" cy="173.483" rx="3.323" ry="7.821"/>
	<ellipse fill="#A55B52" cx="211.589" cy="173.483" rx="3.323" ry="7.821"/>
	<ellipse fill="#A55B52" cx="251.403" cy="173.483" rx="3.323" ry="7.821"/>
	<path fill="#A55B52" d="M171.893,165.661c-1.835,0-3.323,3.502-3.323,7.821s1.488,7.821,3.323,7.821
		c1.835,0,3.085-3.502,3.085-7.821S173.728,165.661,171.893,165.661z"/>
	<rect x="142.603" y="123.034" fill="#A55B52" width="95.218" height="6.704"/>
	<ellipse fill="#A55B52" cx="156.778" cy="106.469" rx="2.805" ry="7.821"/>
	<ellipse fill="#A55B52" cx="223.997" cy="106.469" rx="2.805" ry="7.821"/>
	<path fill="#A55B52" d="M190.488,98.648c-1.549,0-2.805,3.502-2.805,7.821s1.256,7.821,2.805,7.821s2.605-3.502,2.605-7.821
		S192.037,98.648,190.488,98.648z"/>
</g>
<g>
	<path fill="#A55B52" d="M205.975,57.16c3.26-1.982,5.213-4.814,6.119-8.454c2.121-8.528-0.781-15.39-8.04-18.712
		c-4.251-1.946-8.507-1.807-12.515,0.482c-6.212,3.547-9.998,9.002-11.385,15.987c-0.977,4.921,2.279,9.805,7.022,10.425
		c1.646,0.215,3.437-0.671,5.51-1.131c-1.072,1.302-2.394,1.745-3.854,1.849c-6.19,0.443-11.697-5.751-11.066-12.435
		c0.397-4.205,2.465-7.632,5.464-10.389c6.194-5.694,13.267-8.865,21.906-6.64c9.2,2.37,12.583,9.293,11.13,18.345
		c-0.522,3.253-1.862,6.17-4.676,8.78c2.439,0,4.513-0.288,6.48,0.051c7.278,1.257,12.414,7.835,12.431,15.628
		c0.018,8.27-4.046,15.268-11.012,17.862c-7.284,2.714-14.838,2.895-22.332,0.697c-2.949-0.865-5.061-2.802-5.543-6.033
		c-0.068-0.456,0.356-0.985,0.553-1.481c0.245,0.419,0.638,0.814,0.712,1.262c0.421,2.556,1.857,4.393,4.219,5.202
		c7.335,2.512,14.682,2.384,21.691-1.007c4.721-2.284,6.434-6.808,7.128-11.692c0.651-4.585,0.041-9.078-1.675-13.379
		c-2.282-5.721-8.943-8.324-14.622-5.822c-1.047,0.461-2.167,0.76-3.253,1.134C206.236,57.513,206.105,57.336,205.975,57.16z"/>
	<path fill="#A55B52" d="M200.244,67.421c6.894,0.405,13.129-0.729,19.333-4.372c-2.822,3.168-7.336,4.39-19.231,5.482
		c0,2.35,0,4.74,0,7.129c0,2.556,0.078,5.116-0.06,7.665c-0.033,0.613-0.786,1.187-1.207,1.779
		c-0.487-0.604-1.378-1.197-1.395-1.815c-0.124-4.418-0.11-8.841-0.047-13.261c0.019-1.351-0.3-2.077-1.801-2.073
		c-0.953,0.003-1.987-0.073-2.845-0.44c-2.776-1.188-4.07,0.193-5.486,2.417c-3.977,6.246-8.473,12.095-14.376,16.719
		c-2.542,1.991-5.406,2.97-8.603,3.073c-5.289,0.171-9.398-2.968-10.189-7.785c-0.832-5.067,1.942-9.23,7.373-10.513
		c1.933-0.456,3.212-1.289,4.446-2.801c4.636-5.681,11.769-7.153,19.57-4.251c1.084,0.403,2.177,0.783,3.578,1.286
		c2.818-5.156,5.733-10.15,8.258-15.333c0.687-1.411,0.21-3.392,0.255-5.112c0.043-1.656-0.065-3.331,0.149-4.964
		c0.171-1.305,0.677-2.674,2.425-2.551c1.803,0.127,2.303,1.619,2.225,2.972c-0.089,1.539-0.779,3.038-1.147,4.569
		c-0.442,1.836-1.116,3.68-1.17,5.535C200.143,56.226,200.244,61.681,200.244,67.421z M163.634,72.513
		c-4.969,1.21-7.216,4.441-6.181,8.559c1.651,6.565,7.819,9.238,13.361,5.274c3.872-2.77,7.302-6.266,10.524-9.806
		c2.699-2.966,4.812-6.466,7.223-9.783c-11.507-5.503-20.011-1.181-22.932,4.324c2.527,1.218,3.428,2.357,2.659,3.923
		c-0.361,0.736-1.569,1.567-2.322,1.504C163.715,76.318,163.527,74.472,163.634,72.513z M197.606,53.2
		c-2.53,4.407-4.857,8.461-7.308,12.73c2.464,0.45,4.781,0.874,7.308,1.336C197.606,62.509,197.606,58.086,197.606,53.2z
		 M163.572,73.923c1.041,0.81,1.72,1.589,2.566,1.872c0.339,0.114,1.448-0.819,1.506-1.352c0.175-1.602-1.221-1.98-2.418-2.168
		C164.891,72.224,164.418,73.05,163.572,73.923z M200.294,44.172c0.155,0.009,0.309,0.018,0.464,0.027
		c0.112-1.408,0.223-2.816,0.335-4.223c-0.266-0.014-0.533-0.028-0.799-0.042C200.294,41.347,200.294,42.759,200.294,44.172z"/>
</g>
</svg>
