<?xml version="1.0" encoding="UTF-8" standalone="no"?>
<svg
   xmlns:dc="http://purl.org/dc/elements/1.1/"
   xmlns:cc="http://creativecommons.org/ns#"
   xmlns:rdf="http://www.w3.org/1999/02/22-rdf-syntax-ns#"
   xmlns:svg="http://www.w3.org/2000/svg"
   xmlns="http://www.w3.org/2000/svg"
   id="svg2"
   xml:space="preserve"
   enable-background="new 0 0 450 450"
   viewBox="0 0 384.22198 384.22198"
   height="384.22198"
   width="384.22198"
   y="0px"
   x="0px"
   version="1.1"><metadata
     id="metadata118"><rdf:RDF><cc:Work
         rdf:about=""><dc:format>image/svg+xml</dc:format><dc:type
           rdf:resource="http://purl.org/dc/dcmitype/StillImage" /><dc:title></dc:title></cc:Work></rdf:RDF></metadata><defs
     id="defs116" /><g
     transform="translate(-33.804001,-32.858002)"
     style="display:none"
     display="none"
     id="Layer_1"><g
       style="display:inline"
       id="g5"
       display="inline"><circle
         style="fill:#f4e1d9"
         id="circle7"
         r="192.11099"
         cy="222.23599"
         cx="221.91499" /><g
         id="g9"><path
           style="fill:#f79e86"
           id="path11"
           d="m 94.331,198.846 c -4.024,24.817 -7.374,52.328 -12.964,76.699 -0.237,0.674 -0.892,0.892 -1.784,0.892 -0.674,0 -1.566,0 -1.803,-0.665 -5.59,-24.598 -8.485,-52.11 -12.509,-77.145 -1.803,-11.407 -4.934,-22.814 -4.934,-33.993 -2.895,-8.94 -3.132,-19.455 -4.698,-28.85 0,-0.665 0.91,-1.111 1.803,-1.111 0.655,0 1.784,0.446 1.784,0.892 6.263,42.706 11.635,88.998 20.356,131.258 5.59,-28.395 10.269,-59.484 14.967,-88.325 2.24,-14.093 5.371,-28.622 7.611,-43.161 0.218,-0.446 0.892,-0.665 1.784,-0.665 0.674,0 1.566,0.218 1.784,0.892 3.587,14.311 5.371,33.092 7.611,48.295 3.805,26.61 8.048,57.918 12.527,84.528 6.263,-23.479 10.724,-52.101 14.985,-76.025 3.35,-19.236 6.245,-38.236 9.158,-57.472 0.455,-0.446 1.129,-0.892 1.784,-0.892 0.892,0 1.566,0.446 1.803,1.12 -3.587,23.479 -7.156,46.957 -11.416,70.436 -4.024,22.586 -8.721,47.849 -14.53,69.99 -0.218,0.674 -1.111,0.892 -1.784,0.892 -0.673,0 -1.566,-0.219 -1.803,-0.665 -8.485,-42.041 -12.509,-89.899 -20.119,-131.713 -2.912,17.672 -6.7,37.127 -9.613,54.788 z" /><path
           style="fill:#f79e86"
           id="path13"
           d="m 153.851,267.27 c -0.674,2.913 -1.111,6.263 -2.24,8.949 -0.218,0.219 -0.655,0.665 -1.329,0.665 -0.455,0 -1.129,-0.446 -1.129,-1.111 0.91,-3.359 0.91,-4.479 1.347,-7.383 11.853,-56.352 13.874,-80.049 18.553,-103.082 2.021,-9.614 2.24,-20.128 6.045,-28.85 0.455,-0.892 2.24,-2.012 2.913,-2.012 2.003,0 2.458,8.494 2.895,10.733 l 4.698,36.897 c 1.803,14.757 3.805,29.742 5.826,44.499 0.892,6.036 2.895,13.419 3.787,19.673 1.566,10.069 4.698,19.455 5.153,29.296 0,0.446 -0.455,0.892 -1.347,0.892 -0.218,0 -0.892,-0.219 -1.347,-0.665 -1.784,-9.623 -2.895,-18.344 -4.916,-27.512 -0.674,-2.458 -4.461,-26.383 -5.353,-29.514 -10.069,0 -14.093,0.892 -24.38,0.892 l -9.176,47.633 z m 9.396,-50.763 c 8.048,0 15.44,-0.665 23.706,-0.665 0,-6.036 -1.111,-6.709 -1.111,-12.745 -1.803,-9.841 -3.132,-18.781 -7.829,-58.364 -0.237,-1.793 -0.674,-4.251 -0.674,-6.709 -1.784,4.024 -3.132,13.637 -4.698,20.793 -3.587,17.889 -5.153,36.224 -8.721,54.34 l -0.673,3.35 z" /><path
           style="fill:#f79e86"
           id="path15"
           d="m 246.473,273.533 c 0,0.446 -0.455,1.566 -1.803,1.566 -8.485,0 -15.64,1.566 -23.706,1.566 -3.787,0 -7.156,-0.446 -11.398,-1.12 -0.674,0 -1.111,-0.446 -1.111,-1.12 0,-14.53 -0.455,-28.622 -0.892,-43.152 -0.237,-3.132 -0.237,-9.623 -0.237,-12.745 0,-12.299 0.892,-24.826 1.129,-83.855 0,-0.674 1.111,-1.347 1.784,-1.347 0.673,0 1.566,0.674 1.784,1.12 0,29.742 -1.111,62.388 -1.111,92.13 0,15.649 1.111,29.96 1.111,45.837 3.805,0.892 7.156,0.892 10.961,0.892 7.156,0 14.53,-1.338 21.685,-1.338 1.349,0.228 1.804,0.892 1.804,1.566 z" /><path
           style="fill:#f79e86"
           id="path17"
           d="m 266.155,227.914 c -2.003,6.263 -6.482,19.682 -9.614,25.937 0,5.371 0.455,8.275 0.455,10.961 0,3.578 0.218,7.156 0.437,10.506 -0.219,0.901 -1.111,1.12 -1.784,1.12 -0.674,0 -1.566,-0.219 -1.784,-0.892 -0.218,-6.928 -0.218,-14.083 -0.218,-21.239 0,-14.093 0.437,-28.404 0.437,-42.715 0,-24.371 -0.674,-51.209 -0.674,-75.579 0,-0.892 0.674,-1.338 1.566,-1.338 0.674,0 1.347,0.446 1.566,1.111 0,24.598 0.892,51.436 0.892,76.034 0,11.625 -0.437,22.805 -0.437,34.43 2.24,-6.482 4.461,-14.311 5.808,-18.553 5.808,-17.443 9.614,-35.559 13.874,-53.667 2.676,-12.081 6.027,-26.392 8.94,-38.245 0.218,-0.446 1.111,-0.892 1.784,-0.892 0.673,0 1.566,0.446 1.784,1.12 -2.895,12.072 -5.808,26.164 -8.721,38.236 -2.895,12.973 -6.263,25.937 -9.832,38.909 4.024,11.407 8.048,27.502 10.724,39.355 1.803,7.383 3.368,15.431 6.719,22.359 0,0.674 -0.674,1.347 -1.784,1.347 -0.674,0 -1.347,-0.228 -1.566,-0.901 -2.695,-4.242 -3.587,-12.518 -6.719,-22.577 -2.676,-11.407 -5.59,-23.032 -8.94,-33.993 l -2.913,9.166 z" /><path
           style="fill:#f79e86"
           id="path19"
           d="m 302.188,204.663 c 11.853,0 22.14,-0.228 34.43,-1.12 0.674,0 1.129,0.446 1.129,0.892 0,0.892 -0.892,2.012 -2.458,2.012 -12.09,1.12 -21.467,1.12 -33.101,1.12 0,2.012 -0.219,3.805 -0.219,5.817 -0.674,19.901 -1.129,38.9 -1.347,58.81 12.527,0.218 14.766,0.446 16.988,0.446 6.5,0 12.982,-0.228 19.682,-0.674 1.129,0 1.566,0.674 1.566,1.566 0,0.674 -0.674,1.784 -1.784,1.784 -6.045,0.455 -12.072,0.674 -17.898,0.674 -7.156,0 -14.074,-0.218 -20.793,-0.674 -0.437,0 -0.674,-0.446 -0.674,-0.892 0.455,-27.73 1.347,-55.005 1.347,-82.061 0,-17.67 -0.218,-36.451 -1.347,-54.568 0.237,-0.892 1.129,-2.23 2.458,-2.23 7.611,0 13.874,0.218 21.03,0.218 7.156,0 12.072,-0.218 16.551,-0.218 1.566,0 1.566,0.674 1.566,1.12 0,0.446 -0.237,1.566 -1.803,1.566 -2.895,0 -10.051,0.218 -17.443,0.218 -4.916,0 -11.398,0.228 -19.227,0.228 1.129,16.997 1.347,34.658 1.347,51.209 l 0,14.757 z" /><path
           style="fill:#f79e86"
           id="path21"
           d="m 359.669,214.495 c -1.784,0.455 -5.371,0.455 -7.374,0.455 0.218,5.362 0.218,10.278 0.218,15.422 0,16.778 -1.111,30.862 -1.111,44.727 0,0.892 -1.129,1.12 -1.784,1.12 -0.91,0 -1.803,-0.228 -1.803,-1.347 1.803,-45.391 2.24,-92.348 2.24,-137.74 0,-0.892 1.129,-0.892 1.566,-1.347 1.347,0 4.024,-0.218 7.156,-0.218 7.611,0 18.116,0.892 21.922,5.817 3.132,4.024 3.35,12.745 3.35,19.901 0,36.67 0,50.535 -19.009,52.993 5.134,13.191 9.177,27.73 12.527,41.14 1.784,6.491 3.132,13.419 6.027,19.682 0,0.218 -1.566,1.12 -2.458,1.12 -0.437,0 -0.674,-0.228 -1.111,-0.446 -3.132,-6.263 -4.479,-13.647 -6.263,-20.128 -3.35,-13.419 -7.156,-27.948 -12.072,-41.149 l -2.021,0 z m -4.698,-2.23 7.392,-0.892 c 0,0 0.437,-0.228 0.655,-0.228 0.455,0 0.674,0.228 0.91,0.228 2.458,0 3.35,0 4.679,-0.455 7.156,-2.458 10.524,-8.721 11.198,-16.095 0.892,-5.817 1.111,-11.853 1.111,-18.335 0,-6.482 -0.219,-13.865 -0.455,-19.455 -0.655,-4.47 0,-11.853 -3.787,-15.203 -3.368,-2.686 -11.853,-2.913 -17.898,-2.913 l -5.371,0 c 0,16.778 -0.437,33.547 -0.437,49.643 l 0,8.275 c 0,5.144 -0.674,10.06 -0.674,15.203 l 2.677,0.227 z" /></g><g
         id="g23"><path
           style="fill:#a55b53"
           id="path25"
           d="m 212.741,71.576 c 0,14.452 1.255,43.347 -19.214,43.961 -4.498,0.135 -9.106,-1.471 -12.951,-3.743 -3.341,-1.974 -7.559,-7.438 -7.282,-11.482 0.386,-5.627 7.254,-1.987 10.207,-1.224 3.844,0.993 9.052,1.243 12.135,-1.354 2.931,3.127 -1.359,6.515 -4.277,6.872 -2.987,0.365 -6.61,-0.084 -9.237,-0.931 0.11,5.22 6.527,6.885 10.356,4.977 4.903,-2.442 10.337,-6.311 11.773,-11.94 1.73,-6.783 -0.628,-14.303 0.695,-21.154 0.737,-3.816 6.206,-8.614 7.742,-2.741 0.396,1.512 0.59,6.184 -0.898,6.839" /><path
           style="fill:#a55b53"
           id="path27"
           d="m 184.938,70.863 c -0.975,2.961 -4.687,4.684 -7.592,4.997 -4.884,0.526 -4.301,-5.842 -2.863,-9.107 4.77,-10.833 21.141,-10.952 30.897,-8.663 5.237,1.228 12.903,3.622 17.573,-0.046 3.714,-2.917 9.954,-9.867 14.519,-3.506 4.329,6.031 -5.443,13.251 -10.593,14.192 -6.138,1.122 -10.986,-3.663 -16.978,-4.282 -5.501,-0.569 -10.894,-0.945 -16.197,1.221 -2.944,1.202 -7.727,3.116 -9.163,6.115 0.25,0.06 0.461,-0.009 0.635,-0.207" /><g
           id="g29"><path
             style="fill:#a55b53"
             id="path31"
             d="m 222.347,98.333 c -0.13,3.945 -4.193,4.758 -6.778,6.396 -1.706,1.081 -1.831,2.687 0.175,3.459 2.071,0.797 4.415,-0.374 6.299,-1.199 0.897,2.45 -0.546,5.946 1.872,7.872 4.221,3.362 4.74,-6.532 4.987,-8.576 0.145,-1.199 0.701,-5.14 2.695,-3.201 0.941,0.915 1.144,3.487 1.757,4.752 0.756,1.56 1.419,3.435 3.416,3.693 1.863,0.24 2.856,-1.255 4.299,-2.036 0.205,-0.111 0.559,-0.554 0.722,-0.705 1.592,1.901 3.805,2.301 6.067,1.67 3.616,-1.008 8.924,-5.644 9.122,-9.704 0.177,-3.632 -3.081,-1.357 -4.384,-0.12 -1.727,1.639 -4.336,4.422 -6.909,4.425 -0.391,-1.629 2.402,-3.296 3.381,-4.459 1.848,-2.195 2.362,-5.074 2.586,-7.912 0.317,-4.024 -2.322,-7.125 -6.62,-6.174 -2.902,0.643 -3.919,4.41 -4.47,6.944 -0.387,1.777 -0.79,3.825 -0.891,5.657 -0.079,1.443 0.853,2.794 0.783,4.126 -0.07,1.328 -1.835,3.414 -3.382,2.737 -2.461,-1.076 -0.19,-5.76 -0.153,-7.45 0.04,-1.829 -0.703,-4.819 -3.067,-4.644 -0.25,0.019 -0.47,0.084 -0.667,0.184 1.652,-3.018 1.912,-6.781 2.234,-10.251 0.339,-3.657 1.804,-8.733 0.243,-12.294 -1.663,-3.796 -7.059,-2.552 -9.136,0.235 -2.816,3.778 -2.962,8.9 -3.412,13.387 -0.277,2.759 -0.153,5.374 -0.153,8.126 m 4.596,-0.667 c -1.267,-1.806 -0.218,-5.337 0,-7.336 0.242,-2.216 -0.625,-7.705 1.231,-9.176 l 0,-0.153 c 0.474,-1.414 1.96,0.022 2.339,0.767 0.883,1.736 0.553,3.561 0.12,5.369 -0.702,2.921 -1.098,8.606 -3.69,10.529 z m 16.405,4.199 c -0.774,-1.057 0.78,-3.423 1.536,-4.757 -0.008,-0.699 0.495,-1.074 1.213,-0.899 0.149,1.07 -1.282,7.659 -2.749,5.656 z" /></g></g><g
         id="g33"><path
           style="fill:#f4e1d9"
           id="path35"
           d="m 303.785,327.049 c -2.095,1.107 -9.299,11.925 -6.861,13.902 2.1,1.703 6.177,-6.112 6.798,-7.608 0.381,-0.917 1.137,-2.52 1.083,-3.506 -0.104,-1.923 -1.403,-3.291 -2.794,-0.507" /><path
           style="fill:#f4e1d9"
           id="path37"
           d="m 229.523,324.515 c -3.125,0.642 -7.519,7.809 -4.067,10.334 2.233,1.634 5.4,-1.882 6.051,-3.725 0.882,-2.495 -0.01,-4.517 -1.279,-6.577 -0.424,-0.217 -0.346,-0.099 -0.519,-0.064" /><path
           style="fill:#f4e1d9"
           id="path39"
           d="m 204.938,320.46 c -1.994,3.029 -4.749,7.862 -4.276,11.621 4.46,0.764 5.579,-8.178 4.53,-10.86" /><path
           style="fill:#f4e1d9"
           id="path41"
           d="m 178.922,316.791 c -1.534,1.34 -2.429,3.082 -3.146,4.945 2.688,1.145 7.025,-1.757 8.647,-3.928 1.829,-2.448 -0.815,-4.322 -3.131,-2.472" /></g><line
         style="fill:none;stroke:#a55b53;stroke-miterlimit:10"
         id="line43"
         y2="353.983"
         x2="308"
         y1="353.983"
         x1="116.089"
         stroke-miterlimit="10" /><line
         style="fill:none;stroke:#a55b53;stroke-miterlimit:10"
         id="line45"
         y2="92.347"
         x2="162.27"
         y1="92.347"
         x1="135.95799"
         stroke-miterlimit="10" /><line
         style="fill:none;stroke:#a55b53;stroke-miterlimit:10"
         id="line47"
         y2="92.347"
         x2="294.59601"
         y1="92.347"
         x1="268.284"
         stroke-miterlimit="10" /></g><path
       style="display:inline;fill:#a55b53"
       id="path49"
       d="m 280.444,328.792 c -0.757,-0.009 -0.896,0.644 -1.12,1.128 -1.213,2.627 -2.374,5.277 -3.582,7.906 -0.539,1.174 -1.074,2.36 -1.74,3.463 -1.11,1.838 -2.508,2.245 -4.442,1.329 -0.783,-0.371 -1.514,-0.881 -2.208,-1.407 -0.848,-0.642 -0.989,-1.051 -0.588,-2.017 1.079,-2.595 1.878,-5.264 2.298,-8.042 0.061,-0.406 0.037,-0.825 -0.176,-1.246 -0.987,1.551 -2.12,3.032 -2.922,4.674 -0.859,1.759 -2.254,3.057 -3.388,4.574 -0.52,0.695 -1.138,1.346 -1.816,1.888 -2.515,2.011 -5.431,2.457 -8.577,2.265 -2.69,-0.165 -4.591,-1.646 -6.523,-3.439 -2.257,1.796 -4.877,2.518 -7.686,2.248 -2.84,-0.273 -4.67,-2.319 -6.657,-4.25 -0.464,0.656 -0.921,1.303 -1.378,1.949 -1.453,2.054 -3.595,3.113 -5.887,3.799 -2.683,0.803 -5.126,0.128 -7.293,-1.667 -0.749,-0.62 -1.639,-1.069 -2.518,-1.629 -0.758,0.502 -1.49,1.074 -2.3,1.499 -0.857,0.449 -1.767,0.817 -2.689,1.114 -2.608,0.84 -4.975,0.159 -7.201,-1.261 -0.69,-0.44 -1.381,-0.877 -2.231,-1.416 -0.948,0.849 -1.867,1.659 -2.771,2.486 -1.823,1.668 -3.875,2.941 -6.321,3.41 -1.457,0.28 -2.907,0.546 -4.454,0.255 -1.166,-0.219 -2.193,-0.51 -3.093,-1.278 -0.747,-0.637 -1.604,-1.161 -2.273,-1.867 -0.552,-0.583 -0.901,-1.358 -1.4,-2.144 -0.298,0.153 -0.622,0.282 -0.905,0.471 -0.982,0.657 -1.875,1.504 -2.937,1.973 -2.83,1.251 -5.649,1.15 -8.219,-0.716 -1.411,-1.024 -2.792,-2.1 -3.417,-3.882 -0.3,-0.855 -0.956,-0.914 -1.921,-0.402 -1.318,0.7 -2.605,1.47 -3.964,2.075 -0.883,0.394 -1.866,0.581 -2.819,0.792 -0.333,0.074 -0.769,0.04 -1.058,-0.122 -0.469,-0.263 -1.065,-0.594 -1.23,-1.037 -0.247,-0.665 0.348,-1.058 0.911,-1.42 2.649,-1.706 5.296,-3.419 7.885,-5.213 1.091,-0.756 1.747,-1.759 1.598,-3.288 -0.396,-4.087 0.78,-7.868 2.581,-11.485 0.092,-0.185 0.192,-0.381 0.337,-0.521 1.549,-1.506 3.104,-3.005 4.667,-4.497 0.554,-0.529 1.049,-1.216 1.714,-1.513 1.876,-0.837 3.888,-1.2 5.873,-0.479 0.988,0.359 1.962,0.969 2.717,1.699 0.693,0.67 1.138,1.701 0.905,2.713 -0.721,3.135 -1.77,6.154 -3.592,8.848 -0.172,0.254 -0.395,0.48 -0.619,0.693 -2.316,2.206 -4.629,4.414 -6.961,6.603 -0.697,0.654 -1.035,1.382 -0.859,2.354 0.247,1.368 0.334,2.77 1.384,3.866 0.612,0.639 0.78,0.709 1.541,0.184 2.343,-1.618 4.37,-3.601 6.488,-5.489 3.27,-2.914 6.454,-5.932 10.377,-8.065 1.73,-0.941 3.628,-1.129 5.368,-1.91 0.928,-0.417 1.4,-0.978 1.587,-1.902 0.801,-3.957 1.535,-7.929 2.433,-11.864 0.583,-2.553 1.369,-5.062 2.134,-7.57 0.512,-1.678 1.198,-3.302 1.715,-4.978 0.657,-2.13 2.21,-3.493 3.759,-4.964 1.934,-1.835 4.15,-1.699 6.361,-1.229 1.87,0.397 3.377,1.654 4.2,3.405 0.883,1.877 1.464,3.906 1.168,6.016 -0.2,1.423 -0.606,2.822 -0.982,4.215 -0.753,2.79 -1.503,5.582 -2.345,8.346 -0.42,1.38 -0.982,2.725 -1.584,4.038 -1.143,2.492 -2.289,4.988 -3.569,7.41 -1.256,2.377 -2.662,4.676 -4.037,6.988 -1.387,2.333 -1.108,5.137 0.716,6.628 1.596,-0.876 2.977,-1.978 3.721,-3.787 0.441,-1.071 1.034,-2.019 2.366,-2.231 0.805,-0.128 1.264,-0.711 1.663,-1.459 1.241,-2.327 2.475,-4.703 4.619,-6.357 1.514,-1.167 3.147,-2.18 4.733,-3.252 1.153,-0.779 2.335,-1.517 3.462,-2.332 0.246,-0.178 0.402,-0.59 0.448,-0.916 0.591,-4.153 1.093,-8.32 1.744,-12.464 0.522,-3.325 1.112,-6.647 1.877,-9.922 0.408,-1.745 1.218,-3.402 1.916,-5.069 0.256,-0.611 0.679,-1.142 1.423,-1.338 0.314,-0.083 0.59,-0.39 0.837,-0.64 1.304,-1.322 2.815,-2.248 4.682,-2.522 0.152,-0.022 0.338,-0.034 0.443,-0.125 1.228,-1.063 2.552,-0.454 3.619,0.089 0.703,0.358 1.161,1.403 1.49,2.235 0.357,0.9 0.555,1.902 0.617,2.873 0.187,2.941 0.427,5.88 -0.034,8.833 -0.415,2.659 -0.621,5.349 -0.985,8.016 -0.32,2.343 -1.488,4.397 -2.419,6.522 -0.269,0.613 -0.572,1.142 -0.605,1.866 -0.044,0.974 -0.333,1.944 -1.193,2.603 -0.159,0.122 -0.309,0.294 -0.387,0.476 -1.106,2.595 -2.532,5.039 -3.629,7.635 -0.643,1.522 -1.187,3.06 -0.466,4.779 0.415,0.991 0.499,2.115 0.824,3.151 0.317,1.012 0.767,1.973 1.831,2.396 2.916,-2.656 4.556,-5.979 6.018,-9.407 0.302,-0.709 0.435,-1.489 0.686,-2.223 0.45,-1.314 0.928,-2.619 1.398,-3.926 0.123,-0.341 0.351,-0.671 0.374,-1.017 0.095,-1.433 1.157,-2.276 1.987,-3.217 0.713,-0.809 1.859,-0.728 2.852,-0.823 0.491,-0.047 1.005,0.204 1.515,0.282 1,0.152 1.477,0.746 1.389,1.722 -0.096,1.077 -0.124,2.199 -0.458,3.21 -1.12,3.401 -1.947,6.862 -2.542,10.39 -0.24,1.421 -0.74,2.793 -0.492,4.278 0.26,1.559 1.26,2.404 2.656,2.101 0.322,-0.07 0.64,-0.281 0.899,-0.499 2.845,-2.39 4.578,-5.565 6.225,-8.81 1.168,-2.301 2.347,-4.592 4.061,-6.572 1.308,-1.511 2.894,-2.554 4.803,-2.956 1.178,-0.248 2.511,-0.357 3.643,-0.049 1.123,0.305 2.082,1.212 3.168,1.889 1.98,-0.133 4.134,-0.354 6.292,-0.402 2.304,-0.052 3.574,1.034 4.085,3.349 0.509,2.308 0.66,4.602 -0.492,6.806 -0.251,0.481 -0.37,1.032 -0.62,1.755 0.508,-0.092 0.834,-0.06 1.043,-0.202 2.436,-1.663 4.918,-3.268 7.254,-5.063 1.633,-1.255 3.094,-2.744 4.566,-4.195 2.328,-2.293 5.01,-4.109 8.234,-4.517 2.17,-0.275 4.555,-0.088 6.413,1.514 0.559,0.482 0.882,0.339 1.467,0.01 1.596,-0.897 3.306,-1.373 5.189,-0.931 0.743,0.174 1.166,0.512 1.426,1.225 0.383,1.051 0.559,2.072 0.246,3.183 -0.274,0.971 -0.091,1.999 -0.522,3 -0.438,1.017 -0.383,2.238 -0.769,3.287 -0.822,2.232 -0.811,4.569 -1.009,6.871 -0.181,2.111 -0.36,4.186 -0.913,6.261 -0.46,1.722 -0.436,3.577 -0.597,5.375 -0.212,2.366 -0.402,4.735 -0.585,7.104 -0.022,0.287 0.05,0.582 0.104,1.122 1.45,-0.803 2.763,-1.481 4.024,-2.242 0.955,-0.577 1.812,-1.316 2.771,-1.885 1.947,-1.156 3.898,-2.317 5.916,-3.341 1.531,-0.776 3.18,-1.28 4.956,-0.976 1.269,0.218 1.878,1.661 1.262,2.818 -0.463,0.869 -1.152,1.36 -1.996,1.83 -2.3,1.28 -4.598,2.586 -6.767,4.07 -2.748,1.88 -5.62,3.501 -8.716,4.693 -1.325,0.51 -1.978,1.228 -2.029,2.713 -0.085,2.492 -0.796,4.889 -1.502,7.272 -0.412,1.388 -0.759,2.799 -1.246,4.16 -1.162,3.249 -3.03,6.088 -5.235,8.719 -1.16,1.385 -2.114,3.042 -3.521,4.096 -1.983,1.486 -3.821,3.313 -6.45,3.812 -2.47,0.469 -4.712,0.109 -6.794,-1.306 -0.769,-0.523 -1.582,-0.981 -2.366,-1.482 -0.46,-0.294 -0.715,-0.669 -0.708,-1.28 0.006,-0.5 -0.173,-1.018 -0.348,-1.501 -0.722,-1.993 -0.712,-4.086 -0.667,-6.136 0.04,-1.797 0.442,-3.591 0.751,-5.375 0.192,-1.109 0.395,-2.24 0.791,-3.286 1.097,-2.899 3.153,-5.044 5.652,-6.801 1.223,-0.86 2.445,-1.614 3.971,-1.985 1.667,-0.405 3.203,-1.32 4.834,-1.909 1.499,-0.541 3.047,-0.948 4.576,-1.407 1.449,-0.434 1.521,-0.527 1.614,-2.024 0.227,-3.665 0.462,-7.33 0.688,-10.995 0.019,-0.31 0.107,-0.679 -0.022,-0.924 -0.552,-1.05 -0.306,-2.099 -0.175,-3.182 0.116,-0.959 -0.357,-1.23 -1.339,-0.948 -3.164,0.908 -6.411,1.151 -9.647,0.739 -2.576,-0.328 -4.746,-1.734 -6.627,-3.488 -0.452,-0.421 -0.638,-1.152 -0.878,-1.767 -0.165,-0.424 -0.21,-0.895 -0.324,-1.413 -1.465,0.206 -2.203,1.357 -3.173,2.149 -1.033,0.844 -1.966,1.842 -3.09,2.534 -1.109,0.684 -2.446,0.82 -3.752,0.545 -0.379,-0.08 -0.715,-0.374 -1.062,-0.585 -0.343,-0.208 -0.657,-0.47 -1.015,-0.645 -2.086,-1.019 -3.165,-3.343 -2.52,-5.598 0.324,-1.132 0.737,-2.24 1.14,-3.347 0.297,-0.815 0.642,-1.613 0.963,-2.426 0.189,-0.388 0.381,-0.769 0.657,-1.317 -0.757,0.345 -0.686,0.852 -0.653,1.341 z m 15.174,52.692 c -0.265,3.253 -0.064,4.384 0.713,5.452 0.903,1.24 2.051,1.336 3.071,0.186 1.023,-1.153 1.994,-2.353 2.961,-3.554 0.97,-1.205 1.91,-2.434 2.855,-3.659 0.934,-1.209 1.491,-2.648 2.322,-3.931 0.734,-1.133 1.332,-2.542 1.634,-3.997 0.377,-1.816 1.023,-3.575 1.477,-5.378 0.289,-1.148 -0.214,-1.678 -1.289,-1.367 -2.66,0.769 -5.387,1.333 -7.789,2.853 -2.794,1.768 -4.711,4.111 -5.199,7.447 -0.337,2.3 -0.588,4.613 -0.756,5.948 z m 18.386,-57.345 c -0.953,-0.102 -1.71,-0.198 -2.47,-0.26 -0.893,-0.073 -1.75,0.018 -2.475,0.637 -0.193,0.165 -0.429,0.374 -0.657,0.39 -1.415,0.097 -2.159,1.124 -2.86,2.117 -0.643,0.912 -1.088,1.96 -1.662,2.923 -0.686,1.152 -1.518,2.229 -2.096,3.43 -0.461,0.959 -0.745,2.038 -0.911,3.094 -0.187,1.191 0.137,1.523 1.331,1.523 1.902,0 3.831,0.004 5.634,-0.697 1.979,-0.77 3.658,-1.986 4.477,-4.027 0.49,-1.221 0.866,-2.513 1.089,-3.809 0.303,-1.757 0.41,-3.548 0.6,-5.321 z m -117.792,3.809 c -0.626,0.442 -0.937,0.706 -1.287,0.902 -1.386,0.774 -2.826,1.462 -4.161,2.314 -0.671,0.428 -1.257,1.072 -1.712,1.735 -0.932,1.358 -1.766,2.785 -2.608,4.203 -0.726,1.223 -0.477,3.115 0.534,4.162 0.162,0.168 0.437,0.246 0.675,0.316 1.555,0.454 2.648,-0.537 3.769,-1.299 0.845,-0.574 1.579,-1.316 2.343,-2.005 0.788,-0.71 1.672,-1.358 2.294,-2.196 0.565,-0.761 1.199,-1.76 1.156,-2.622 -0.089,-1.764 -0.611,-3.507 -1.003,-5.51 z m 31.389,-2.597 c -0.424,0.167 -0.638,0.199 -0.782,0.316 -2.048,1.654 -3.464,3.83 -4.741,6.068 -0.924,1.619 -1.31,3.473 -1.563,5.329 -0.097,0.713 0.238,1.293 0.849,1.505 0.48,0.166 1.239,0.218 1.581,-0.051 0.752,-0.592 1.407,-1.361 1.94,-2.164 0.828,-1.247 1.421,-2.656 2.294,-3.867 1.635,-2.272 0.993,-4.58 0.422,-7.136 z m -21.558,-6.976 c 0.69,-1.534 1.489,-3.03 2.042,-4.612 0.629,-1.8 1.025,-3.679 1.546,-5.518 0.562,-1.986 1.215,-3.948 1.709,-5.95 0.393,-1.592 0.546,-3.222 -0.331,-4.795 -2.17,2.91 -5.211,15.329 -4.966,20.875 z m -35.76,6.384 c 0.596,0.565 0.94,0.2 1.313,-0.212 1.969,-2.171 3.228,-4.672 3.615,-7.613 -1.528,0.688 -2.406,1.424 -3.04,2.877 -0.689,1.583 -1.238,3.226 -1.888,4.948 z m 66.706,-15.289 c 0.064,0.027 0.128,0.055 0.191,0.082 0.109,-0.143 0.296,-0.276 0.316,-0.431 0.273,-2.103 1.681,-4.001 1.113,-6.264 -0.079,-0.316 0.133,-0.696 0.17,-1.051 0.069,-0.666 0.111,-1.334 0.155,-2.002 0.01,-0.149 -0.021,-0.301 -0.034,-0.452 -0.106,0 -0.212,0 -0.318,-10e-4 -0.53,3.374 -1.062,6.746 -1.593,10.119 z"
       display="inline" /><path
       style="display:inline;fill:#a55b53"
       id="path51"
       d="m 93.761,309.645 c 0.681,-2.673 2.378,-4.103 4.817,-4.661 2.2,-0.504 4.417,-0.507 6.574,0.312 0.872,0.331 1.569,0.793 2.224,1.555 0.808,0.939 1.444,1.988 2.239,2.914 0.681,0.793 1.037,1.65 1.129,2.662 0.444,4.853 -0.989,9.139 -3.77,13.084 -1.249,1.771 -2.878,3.025 -4.805,3.785 -1.366,0.538 -2.918,0.806 -4.391,0.825 -2.374,0.031 -4.769,-0.117 -7.05,-0.954 -0.286,-0.105 -0.611,-0.11 -0.92,-0.143 -2.663,-0.288 -4.975,-1.315 -6.907,-3.197 -0.693,-0.676 -1.615,-1.162 -2.168,-1.926 -1.537,-2.123 -2.585,-4.429 -2.364,-7.192 0.093,-1.165 -0.242,-2.36 -0.327,-3.545 -0.07,-0.972 -0.208,-1.974 -0.053,-2.92 0.441,-2.706 0.991,-5.395 1.555,-8.079 0.125,-0.593 0.521,-1.123 0.726,-1.706 0.967,-2.748 2.329,-5.277 4.101,-7.59 0.997,-1.302 1.964,-2.627 2.94,-3.945 1.211,-1.635 2.973,-2.59 4.674,-3.535 1.875,-1.042 3.863,-1.943 5.896,-2.625 3.425,-1.148 6.963,-1.579 10.519,-0.58 1.636,0.46 3.219,1.109 4.826,1.673 0.049,0.017 0.103,0.03 0.143,0.061 2.102,1.585 4.251,3.111 6.281,4.782 0.985,0.81 1.826,1.832 2.593,2.861 1.496,2.006 2.031,4.401 2.469,6.804 0.371,2.032 0.704,4.073 0.965,6.122 0.102,0.798 -0.034,1.627 -0.072,2.442 -0.017,0.361 -0.105,0.724 -0.084,1.082 0.143,2.489 -0.072,4.937 -0.414,7.414 -0.225,1.633 -0.314,3.364 -0.251,5.001 0.052,1.362 -0.255,2.622 -0.293,3.931 -0.047,1.598 0.121,3.205 0.015,4.797 -0.136,2.056 -0.46,4.099 -0.686,6.15 -0.158,1.437 -0.295,2.876 -0.419,4.316 -0.016,0.187 0.103,0.385 0.235,0.833 0.695,-0.534 1.4,-0.883 1.831,-1.444 1.097,-1.426 2.191,-2.88 3.062,-4.448 0.872,-1.57 1.513,-3.276 2.182,-4.952 0.709,-1.776 1.374,-3.571 1.98,-5.384 0.536,-1.604 1.057,-3.224 1.411,-4.874 0.345,-1.604 1.242,-2.798 2.376,-3.869 0.207,-0.195 0.562,-0.314 0.854,-0.326 1.888,-0.08 3.857,-0.551 5.48,1.1 0.603,3.045 0.557,6.219 0.257,9.417 -0.221,2.356 -0.267,4.728 -0.391,7.092 -0.056,1.068 -0.114,2.136 -0.173,3.249 0.986,-0.001 1.519,-0.485 1.978,-1.051 1.402,-1.729 2.778,-3.479 4.178,-5.209 0.419,-0.518 0.973,-0.945 1.311,-1.506 0.797,-1.325 1.591,-2.666 2.222,-4.074 0.95,-2.118 1.852,-4.268 2.606,-6.462 0.889,-2.587 1.631,-5.226 2.378,-7.859 1.228,-4.329 2.413,-8.671 3.605,-13.011 0.233,-0.847 0.444,-1.703 0.612,-2.565 0.487,-2.5 1.537,-4.59 3.914,-5.839 1.121,-0.589 1.45,-0.586 2.436,0.273 1.33,1.158 2.655,2.309 3.259,3.905 -0.248,0.774 -0.437,1.463 -0.689,2.128 -0.511,1.35 -1.127,2.665 -1.566,4.037 -0.469,1.465 -0.76,2.986 -1.171,4.471 -0.685,2.475 -0.944,5.075 -2.175,7.39 -0.169,0.317 -0.356,0.644 -0.43,0.989 -0.333,1.563 -0.627,3.135 -0.937,4.704 -0.03,0.152 -0.047,0.31 -0.103,0.453 -1.191,3.036 -2.356,6.084 -3.589,9.102 -1.103,2.699 -2.636,5.112 -4.74,7.184 -1.614,1.59 -3.048,3.363 -4.577,5.041 -0.345,0.378 -0.705,0.784 -1.141,1.03 -2.685,1.515 -5.218,3.401 -8.498,3.499 -0.995,0.03 -1.909,0.045 -2.811,-0.56 -0.751,-0.503 -1.695,-0.709 -2.508,-1.134 -0.567,-0.296 -1.056,-0.739 -1.695,-1.198 -0.219,0.239 -0.606,0.524 -0.809,0.905 -1.348,2.524 -3.734,3.658 -6.226,4.548 -2.706,0.966 -5.539,1.192 -8.403,0.88 -0.464,-0.05 -0.939,-0.207 -1.388,-0.15 -1.531,0.197 -2.501,-0.858 -3.517,-1.639 -0.817,-0.628 -1.239,-1.592 -0.846,-2.775 0.715,-2.149 1.326,-4.333 1.98,-6.504 0.045,-0.149 0.098,-0.3 0.113,-0.453 0.223,-2.252 0.459,-4.503 0.654,-6.758 0.329,-3.812 0.631,-7.625 0.946,-11.438 0.047,-0.567 0.11,-1.134 0.151,-1.701 0.064,-0.877 -0.008,-1.787 0.2,-2.627 0.448,-1.808 0.249,-3.599 0.143,-5.41 -0.075,-1.281 0.053,-2.574 0.009,-3.858 -0.028,-0.812 -0.177,-1.625 -0.323,-2.428 -0.304,-1.673 -0.447,-3.41 -1.008,-4.995 -1.007,-2.846 -2.874,-5.111 -5.477,-6.702 -1.406,-0.859 -2.736,-1.918 -4.445,-2.119 -0.813,-0.096 -1.659,-0.156 -2.464,-0.043 -2.708,0.381 -5.164,1.482 -7.405,2.996 -0.882,0.595 -1.614,1.46 -2.289,2.303 -1.227,1.535 -2.363,3.143 -3.53,4.726 -0.153,0.208 -0.224,0.497 -0.413,0.654 -1.174,0.977 -1.676,2.27 -2.067,3.715 -0.632,2.339 -1.633,4.587 -2.156,6.945 -0.352,1.585 -0.361,3.322 -0.144,4.94 0.334,2.499 0.732,5.026 1.959,7.305 0.516,0.958 1.021,1.922 1.569,2.862 0.146,0.25 0.395,0.502 0.656,0.613 2.818,1.195 5.687,1.899 8.766,1.026 0.924,-0.262 1.634,-0.785 2.048,-1.541 1.715,-3.134 2.756,-6.453 2.559,-10.094 -0.087,-1.609 -1.271,-2.424 -2.273,-3.349 -0.227,-0.21 -0.873,-0.027 -1.31,0.061 -0.999,0.201 -1.981,0.492 -2.983,0.676 -1.001,0.178 -1.932,-0.102 -2.962,-0.678 z"
       display="inline" /><path
       style="display:inline;fill:#a55b53"
       id="path53"
       d="m 254.674,298.59 c 1.847,-2.949 4.583,-3.872 7.739,-3.716 0.748,0.037 1.676,0.51 2.151,1.087 0.757,0.921 1.98,1.745 1.561,3.265 -0.081,0.292 -0.151,0.63 -0.343,0.841 -1.198,1.319 -2.281,2.803 -4.284,3.007 -0.383,0.039 -0.73,0.356 -1.113,0.489 -1.18,0.409 -2.236,0.177 -3.38,-0.367 -1.589,-0.756 -2.388,-1.735 -1.987,-3.542 0.067,-0.297 -0.208,-0.67 -0.344,-1.064 z"
       display="inline" /></g><g
     transform="translate(-33.804001,-32.858002)"
     id="Layer_2"><circle
       style="fill:#5d6785"
       id="circle56"
       r="192.11099"
       cy="224.96899"
       cx="225.91499" /><path
       style="fill:#dfdfde"
       id="path58"
       d="m 337.36,252.892 c -0.801,0.531 -1.602,1.023 -2.363,1.572 -3.382,2.443 -7.184,2.971 -11.199,2.426 -1.603,-0.218 -3.178,-0.655 -4.782,-0.853 -2.077,-0.256 -3.765,-1.332 -5.375,-2.489 -0.864,-0.62 -1.626,-1.538 -2.128,-2.484 -3.693,-6.961 -5.19,-14.418 -4.818,-22.269 0.294,-6.208 0.548,-12.419 0.905,-18.623 0.089,-1.54 0.49,-3.064 0.78,-4.59 0.144,-0.757 0.642,-1.21 1.423,-1.078 1.002,0.169 2.012,0.375 2.967,0.712 1.216,0.429 1.955,1.351 1.993,2.676 0.062,2.137 0.223,4.29 0.046,6.411 -0.282,3.386 -0.657,6.742 -0.247,10.156 0.165,1.371 -0.3,2.806 -0.246,4.203 0.222,5.854 0.722,11.687 2.766,17.238 0.606,1.644 1.471,3.244 2.484,4.676 1.705,2.409 6.496,2.905 9.128,1.534 2.847,-1.482 4.111,-3.955 4.96,-6.718 1.856,-6.048 2.991,-12.183 2.18,-18.586 -0.566,-4.469 -0.797,-8.98 -1.175,-13.473 -0.174,-2.066 0.665,-3.126 2.686,-3.419 0.365,-0.053 0.724,-0.149 1.088,-0.217 2.525,-0.467 3.75,0.496 4.017,3.017 0.486,4.599 1.155,9.182 1.51,13.791 0.232,3.012 0.012,6.057 0.058,9.087 0.03,1.985 0.204,3.966 0.258,5.951 0.044,1.616 0.083,3.239 -0.013,4.851 -0.174,2.929 0.115,5.821 0.361,8.734 0.278,3.304 0.65,6.696 0.203,9.943 -0.61,4.43 0.292,8.807 -0.174,13.191 -0.281,2.644 -0.278,5.36 -0.921,7.913 -0.765,3.038 -2.041,5.953 -3.197,8.882 -0.286,0.724 -0.897,1.365 -1.475,1.922 -5.3,5.109 -11.531,7.863 -18.996,7.171 -1.975,-0.183 -4.004,-0.556 -5.831,-1.287 -1.288,-0.515 -2.555,-1.594 -3.334,-2.755 -1.265,-1.885 -2.194,-4.01 -3.13,-6.095 -0.78,-1.736 -0.751,-3.601 -0.34,-5.444 0.213,-0.954 0.922,-1.304 1.795,-1.724 3.032,-1.459 4.915,0.374 6.572,2.294 0.919,1.066 1.254,2.647 1.808,4.014 0.304,0.749 0.471,1.553 0.776,2.301 1.369,3.358 4.644,5.016 8.078,3.768 2.199,-0.799 4.394,-1.871 6.249,-3.273 1.708,-1.289 2.503,-3.45 3.03,-5.542 1.73,-6.868 1.924,-13.899 2.098,-20.929 0.104,-4.214 0.278,-8.426 0.349,-12.641 0.02,-1.275 0.366,-2.669 -0.824,-3.945 z" /><path
       style="fill:#dfdfde"
       id="path60"
       d="m 160.075,246.942 c 0.362,0.023 0.697,0.085 1.025,0.058 3.605,-0.301 7.229,-0.473 10.808,-0.971 2.982,-0.415 6.079,-0.033 8.956,-1.252 0.446,-0.189 1.024,-0.093 1.54,-0.083 3.38,0.068 6.762,0.109 10.138,0.257 0.673,0.029 1.438,0.342 1.967,0.765 0.916,0.732 1.755,1.594 2.491,2.51 0.798,0.993 0.989,2.123 0.093,3.33 -3.364,-0.092 -6.741,-0.294 -10.114,-0.241 -2.507,0.039 -5.005,0.462 -7.513,0.618 -2.795,0.174 -5.599,0.202 -8.394,0.372 -0.863,0.053 -1.708,0.38 -2.567,0.548 -2.153,0.422 -4.295,0.933 -6.467,1.209 -3.217,0.409 -6.455,0.874 -9.686,0.896 -3.49,0.023 -7.199,-2.233 -7.811,-6.53 0.744,-0.628 1.479,-1.366 2.325,-1.943 3.208,-2.189 5.848,-4.948 8.37,-7.877 2.701,-3.136 5.599,-6.103 8.399,-9.154 3.051,-3.326 6.187,-6.58 9.108,-10.017 3.819,-4.494 7.464,-9.136 11.176,-13.721 0.127,-0.156 0.166,-0.384 0.353,-0.836 -3.369,0.987 -6.639,1.095 -9.912,1.205 -3.247,0.109 -6.494,0.245 -9.737,0.426 -2.938,0.164 -5.699,-0.754 -8.521,-1.297 -1.013,-0.195 -1.995,-0.554 -3.01,-0.732 -3.424,-0.598 -5.907,-2.511 -7.651,-5.436 -0.18,-0.301 -0.181,-0.992 0.028,-1.188 0.621,-0.582 1.256,-1.254 2.307,-1 2.919,0.704 5.863,1.309 8.772,2.053 3.214,0.822 6.472,0.278 9.706,0.438 1.695,0.084 3.409,0.038 5.101,-0.106 5.959,-0.505 11.924,-0.977 17.864,-1.665 3.14,-0.364 5.407,0.955 7.39,3.056 1.044,1.106 1.004,2.811 0.104,3.818 -2.843,3.185 -5.734,6.329 -8.526,9.558 -2.358,2.727 -4.564,5.586 -6.912,8.323 -3.515,4.097 -7.127,8.111 -10.637,12.211 -2.102,2.455 -4.056,5.036 -6.138,7.508 -1.357,1.609 -2.823,3.127 -4.425,4.89 z" /><path
       style="fill:#dfdfde"
       id="path62"
       d="m 205.576,234.76 c -0.025,-3.745 -0.085,-7.002 -0.059,-10.258 0.044,-5.47 0.118,-10.939 0.233,-16.408 0.043,-2.056 0.197,-4.112 0.376,-6.161 0.23,-2.633 1.997,-3.866 4.819,-3.444 1.779,0.266 2.985,2.3 2.913,4.348 -0.09,2.562 0.106,5.134 0.142,7.701 0.025,1.847 0.132,3.71 -0.054,5.54 -0.242,2.372 -0.285,4.705 0.195,7.044 0.074,0.358 0.094,0.746 0.044,1.106 -0.549,3.982 0.112,7.939 0.328,11.895 0.136,2.486 0.672,4.981 1.298,7.402 0.604,2.338 1.541,4.591 2.363,6.87 0.173,0.481 0.438,0.944 0.734,1.363 0.562,0.797 1.267,0.982 2.075,0.323 2.416,-1.968 4.79,-4.012 6.178,-6.863 2.139,-4.396 3.791,-8.917 4.341,-13.876 0.464,-4.191 0.496,-8.371 0.609,-12.559 0.116,-4.286 0.144,-8.576 0.164,-12.864 0.004,-0.795 -0.169,-1.6 -0.333,-2.385 -0.311,-1.489 0.203,-2.868 1.425,-3.652 0.062,-0.04 0.137,-0.115 0.191,-0.103 1.999,0.428 4.235,-0.909 6.032,0.709 0.476,0.429 0.748,1.266 0.806,1.941 0.15,1.768 0.15,3.55 0.173,5.327 0.052,3.988 0.363,7.998 0.054,11.959 -0.465,5.949 -0.293,12.006 -2.172,17.78 -1.397,4.292 -3.219,8.368 -5.767,12.155 -1.26,1.873 -2.864,3.372 -4.357,4.967 -0.944,1.009 -2.56,1.369 -3.831,2.095 -1.882,1.075 -3.888,1.256 -6.004,1.137 -3.244,-0.183 -5.477,-1.893 -7.264,-4.432 -2.254,-3.204 -3.456,-6.832 -4.242,-10.605 -0.589,-2.82 -1.001,-5.677 -1.41,-8.052 z" /><path
       style="fill:#dfdfde"
       id="path64"
       d="m 248.746,248.362 c 0.202,-4.361 0.426,-8.721 0.601,-13.083 0.216,-5.394 0.344,-10.792 0.598,-16.184 0.239,-5.093 0.561,-10.182 0.904,-15.27 0.323,-4.802 0.756,-9.597 1.075,-14.4 0.437,-6.572 0.81,-13.148 1.214,-19.721 0.277,-4.507 0.615,-9.011 0.81,-13.521 0.06,-1.384 -0.242,-2.787 -0.417,-4.176 -0.189,-1.498 0.079,-1.794 1.643,-1.804 0.652,-0.004 1.306,-0.068 1.954,-0.15 1.053,-0.133 1.869,0.262 2.528,1.049 1.343,1.605 1.97,3.452 1.799,5.54 -0.21,2.577 -0.512,5.147 -0.673,7.727 -0.11,1.755 0.004,3.523 -0.078,5.28 -0.09,1.918 -0.31,3.829 -0.439,5.745 -0.302,4.502 -0.599,9.005 -0.87,13.509 -0.298,4.947 -0.499,9.9 -0.865,14.842 -0.312,4.2 -0.928,8.379 -1.17,12.581 -0.217,3.766 -0.042,7.553 -0.166,11.326 -0.075,2.285 -0.397,4.561 -0.595,6.842 -0.038,0.434 -0.025,0.874 -0.019,1.311 0.027,1.992 0.11,3.984 0.076,5.974 -0.032,1.849 -0.223,3.694 -0.279,5.543 -0.078,2.576 -0.059,5.154 -0.155,7.729 -0.047,1.271 -1.247,1.749 -2.117,1.992 -1.604,0.448 -3.294,0.183 -4.496,-1.135 -0.438,-0.48 -0.647,-1.307 -0.68,-1.99 -0.091,-1.847 -0.031,-3.702 -0.031,-5.554 -0.052,0 -0.102,-0.001 -0.152,-0.002 z" /><path
       style="fill:#dfdfde"
       id="path66"
       d="m 296.017,212.321 c 0.385,-6.683 0.854,-13.553 1.152,-20.431 0.214,-4.95 0.145,-9.911 0.303,-14.863 0.128,-3.991 0.425,-7.976 0.61,-11.965 0.099,-2.143 0.063,-4.293 0.192,-6.433 0.12,-1.982 0.31,-3.965 0.599,-5.929 0.218,-1.481 1.054,-1.941 2.571,-1.624 0.36,0.075 0.707,0.212 1.061,0.319 1.905,0.572 2.285,0.947 2.375,2.953 0.073,1.624 -0.017,3.259 -0.103,4.885 -0.262,4.947 -0.566,9.891 -0.835,14.838 -0.201,3.691 -0.425,7.382 -0.54,11.076 -0.08,2.579 0.062,5.165 0.002,7.745 -0.055,2.365 -0.257,4.726 -0.378,7.09 -0.264,5.163 -0.488,10.328 -0.782,15.489 -0.399,7.012 -1.07,14.017 -1.183,21.032 -0.057,3.55 -0.549,7.045 -0.618,10.574 -0.026,1.311 -0.168,2.647 0.575,3.901 0.254,0.428 0.069,1.142 0.017,1.719 -0.052,0.583 -0.251,1.157 -0.273,1.739 -0.077,2.009 -0.727,2.844 -2.56,3.183 -1.233,0.228 -3.155,-0.997 -3.572,-2.371 -0.211,-0.694 -0.275,-1.441 -0.336,-2.169 -0.4,-4.811 -0.02,-9.605 0.308,-14.403 0.495,-7.237 0.959,-14.477 1.399,-21.718 0.093,-1.477 0.016,-2.963 0.016,-4.637 z" /><path
       style="fill:#dfdfde"
       id="path68"
       d="m 278.783,216.428 c -0.091,3.092 -0.126,6.187 -0.287,9.275 -0.258,4.943 -0.617,9.88 -0.903,14.822 -0.239,4.132 -0.408,8.269 -0.667,12.399 -0.066,1.062 0.087,2.402 -1.343,2.75 -1.503,0.365 -3.014,0.598 -4.439,-0.491 -1.206,-0.921 -1.526,-2.045 -1.433,-3.476 0.304,-4.71 0.53,-9.425 0.821,-14.136 0.26,-4.204 0.524,-8.409 0.866,-12.607 0.348,-4.272 0.778,-8.538 1.202,-12.804 0.153,-1.54 0.627,-1.891 2.148,-1.764 3.504,0.291 4.156,1.033 4.142,4.706 -0.002,0.444 0,0.887 0,1.331 -0.036,-0.002 -0.071,-0.003 -0.107,-0.005 z" /><path
       style="fill:#dfdfde"
       id="path70"
       d="m 275.741,177.52 c 2.398,-1.302 4.627,-1.017 6.216,0.803 0.316,0.362 0.614,0.87 0.646,1.33 0.173,2.498 0.473,5.015 0.326,7.502 -0.199,3.372 -3.149,4.558 -5.843,2.46 -0.518,-0.403 -1.003,-1.16 -1.056,-1.791 -0.197,-2.349 -0.218,-4.714 -0.283,-7.073 -0.029,-1.026 -0.006,-2.052 -0.006,-3.231 z" /><g
       id="g72"><path
         style="fill:#dfdfde"
         id="path74"
         d="m 213.457,146.785 c 0,0 -17.021,3.074 -22.312,15.035 -5.442,12.301 3.884,26.623 3.884,26.623 0,0 -3.938,-11.938 1.503,-24.239 5.292,-11.961 16.925,-17.419 16.925,-17.419 z" /><path
         style="fill:#dfdfde"
         id="path76"
         d="m 213.457,146.785 c 0,0 3.789,12.28 -1.502,24.24 -5.442,12.301 -16.925,17.417 -16.925,17.417 0,0 16.871,-2.733 22.312,-15.034 5.291,-11.96 -3.885,-26.623 -3.885,-26.623 z" /></g><g
       id="g78"><path
         style="fill:#dfdfde"
         id="path80"
         d="m 164.265,142.891 c 0,0 -14.315,9.708 -14.306,22.786 0.01,13.451 14.339,22.765 14.339,22.765 0,0 -8.438,-9.318 -8.448,-22.769 -0.009,-13.078 8.415,-22.782 8.415,-22.782 z" /><path
         style="fill:#dfdfde"
         id="path82"
         d="m 164.265,142.891 c 0,0 8.44,9.691 8.449,22.769 0.01,13.451 -8.416,22.781 -8.416,22.781 0,0 14.316,-9.335 14.307,-22.786 -0.009,-13.077 -14.34,-22.764 -14.34,-22.764 z" /></g><g
       id="g84"><path
         style="fill:#dfdfde"
         id="path86"
         d="m 109.923,157.134 c 0,0 -5.578,16.372 2.309,26.805 8.111,10.73 25.159,9.532 25.159,9.532 0,0 -12.349,-2.354 -20.46,-13.084 -7.886,-10.433 -7.008,-23.253 -7.008,-23.253 z" /><path
         style="fill:#dfdfde"
         id="path88"
         d="m 109.923,157.134 c 0,0 12.575,2.651 20.461,13.084 8.111,10.73 7.007,23.254 7.007,23.254 0,0 5.803,-16.075 -2.308,-26.806 -7.886,-10.433 -25.16,-9.532 -25.16,-9.532 z" /></g><g
       id="g90"><path
         style="fill:#dfdfde"
         id="path92"
         d="m 93.884,225.989 c 0,0 9.499,14.455 22.576,14.635 13.45,0.185 22.971,-14.007 22.971,-14.007 0,0 -9.44,8.302 -22.889,8.116 -13.078,-0.18 -22.658,-8.744 -22.658,-8.744 z" /><path
         style="fill:#dfdfde"
         id="path94"
         d="m 93.884,225.989 c 0,0 9.813,-8.298 22.89,-8.118 13.45,0.185 22.657,8.746 22.657,8.746 0,0 -9.126,-14.45 -22.576,-14.636 -13.077,-0.18 -22.971,14.008 -22.971,14.008 z" /></g><g
       id="g96"><path
         style="fill:#dfdfde"
         id="path98"
         d="m 213.457,304.732 c 0,0 -17.021,-3.074 -22.312,-15.035 -5.442,-12.301 3.884,-26.623 3.884,-26.623 0,0 -3.938,11.938 1.503,24.239 5.292,11.962 16.925,17.419 16.925,17.419 z" /><path
         style="fill:#dfdfde"
         id="path100"
         d="m 213.457,304.732 c 0,0 3.789,-12.28 -1.502,-24.24 -5.442,-12.301 -16.925,-17.417 -16.925,-17.417 0,0 16.871,2.733 22.312,15.034 5.291,11.96 -3.885,26.623 -3.885,26.623 z" /></g><g
       id="g102"><path
         style="fill:#dfdfde"
         id="path104"
         d="m 164.265,308.626 c 0,0 -14.315,-9.708 -14.306,-22.786 0.01,-13.451 14.339,-22.765 14.339,-22.765 0,0 -8.438,9.318 -8.448,22.769 -0.009,13.079 8.415,22.782 8.415,22.782 z" /><path
         style="fill:#dfdfde"
         id="path106"
         d="m 164.265,308.626 c 0,0 8.44,-9.691 8.449,-22.769 0.01,-13.451 -8.416,-22.781 -8.416,-22.781 0,0 14.316,9.335 14.307,22.786 -0.009,13.077 -14.34,22.764 -14.34,22.764 z" /></g><g
       id="g108"><path
         style="fill:#dfdfde"
         id="path110"
         d="m 109.923,294.383 c 0,0 -5.578,-16.372 2.309,-26.805 8.111,-10.73 25.159,-9.532 25.159,-9.532 0,0 -12.349,2.354 -20.46,13.084 -7.886,10.433 -7.008,23.253 -7.008,23.253 z" /><path
         style="fill:#dfdfde"
         id="path112"
         d="m 109.923,294.383 c 0,0 12.575,-2.651 20.461,-13.084 8.111,-10.73 7.007,-23.254 7.007,-23.254 0,0 5.803,16.075 -2.308,26.806 -7.886,10.433 -25.16,9.532 -25.16,9.532 z" /></g></g></svg>